<?xml version="1.0" encoding="UTF-8"?>
<svg xmlns="http://www.w3.org/2000/svg"
     viewBox="0 0 143.78 142.86">
    <path d="M83.12,142.86v-50.22h16.8l3.14-20.75h-19.94v-14.15c.33-6.71,4.32-10.23,10.91-10.55,3.23-.16,6.6.13,9.84,0v-17.7c-2.22-.34-4.46-.67-6.69-.9-9.48-.95-19.3-1.18-27.16,4.99-6.33,4.97-9,12.79-9.36,20.65v17.66s-18.23,0-18.23,0v20.75h18.24v50.22c-18.83-2.75-36.04-13.6-47.11-28.94C-5.5,87.52-4.35,51.44,16.28,26.3,40.98-3.79,85.32-8.85,116.13,15.21c31.19,24.35,36.9,69.51,12.48,100.87-11.06,14.2-27.58,24.14-45.49,26.78Z"
          style="fill: #1877f1;"/>
</svg>