<?xml version="1.0" encoding="UTF-8"?>
<svg xmlns="http://www.w3.org/2000/svg" viewBox="0 0 159.27 159.12">
    <path d="M134.78,22.05C89.8-20.77,15.14,2.03,1.91,62.37c-13.18,60.1,44.01,111.79,102.61,92.73,56.82-18.48,73.64-91.74,30.26-133.05ZM53.08,127.07h-19.71v-63.07h19.71v63.07ZM42.42,54.55c-13.45-.91-13.47-20.92-1.28-22.57,17.45-2.36,17.37,23.66,1.28,22.57ZM127.33,127.07h-19.17v-36.25c0-12.16-20.36-14.64-24.38-1.69-.18.58-.73,2.59-.73,3.04v34.91h-19.17v-63.07h18.09v8.9c4.15-5.17,10.6-8.93,17.22-9.9,8.96-1.32,19.24,2.14,24.04,10.09,1.43,2.37,4.1,8.62,4.1,11.27v42.72Z"
          style="fill: #0066c7;"/>
</svg>