<?xml version="1.0" encoding="UTF-8"?>
<svg xmlns="http://www.w3.org/2000/svg" viewBox="0 0 144.17 144.2">
    <path d="M68.29.09c.6-.12,1.24-.11,1.83,0,1.21-.12,2.45-.12,3.66,0,.5-.11,1.04-.12,1.55,0,.17-.11.39-.11.56,0,8.5-.24,17.11,2.07,24.86,5.47,19.6,8.6,33.99,24.6,40.49,44.93,1.86,5.81,3.11,11.9,2.79,18.01.04.64.08,1.3.14,1.97v3.1c-.06.67-.1,1.33-.14,1.97.31,6.42-1.11,12.84-3.1,18.93-7.7,23.62-27.2,41.76-51.33,47.78-5.17,1.29-10.48,2.08-15.82,1.85-1.16.13-2.36.13-3.52,0-5.34.22-10.65-.59-15.82-1.9-25.12-6.37-45.3-25.95-52.12-51C.94,86.14-.04,80.74.15,75.55c-.16-2.34-.24-4.71,0-7.04-.3-3.96.36-8.05,1.2-11.94C6.94,30.82,27.49,9.02,52.94,2.09,57.93.73,63.1-.14,68.29.09ZM107.26,55.4l-22.08-29.91-5.78,4.23,21.9,29.79.26.11,5.71-4.22ZM71.4,37.27l-4.66,5.55,28.79,24c1.34-1.73,2.94-3.28,4.29-5,.16-.21.48-.53.37-.77l-28.78-23.78ZM91.09,75.27l2.9-6.48-.08-.35-33.72-15.56-2.89,6.69,33.78,15.7ZM90.39,84.14l.29-6.69-37.31-7.1-1.27,8.31,38.29,5.49ZM45.34,78.36h-8.45v30.97h67.71v-30.97h-8.45v22.52h-50.82v-22.52ZM90.39,86.81h-39.42v8.45h39.42v-8.45Z"
          style="fill: #f37f24;"/>
</svg>