<?xml version="1.0" encoding="UTF-8"?>
<svg xmlns="http://www.w3.org/2000/svg" viewBox="0 0 146.54 145.59">
    <path d="M146.54,72.8c0,40.2-32.8,72.8-73.27,72.8S0,113,0,72.8,32.8,0,73.27,0s73.27,32.59,73.27,72.8ZM54.89,30.76h-26.33l33.76,45.87-33.76,38.02,8.5-.92,29.75-31.62,24.84,32.56h26.33l-35.78-48.88,31.8-35.01c-2.06.16-4.45-.36-6.44.01-3.47.66-19.5,20.15-23.34,24.19-1.07,1.13-5.12,5.62-6.38,5.36l-22.96-29.57Z"/>
    <path d="M54.89,30.76l22.96,29.57c1.26.26,5.31-4.23,6.38-5.36,3.84-4.04,19.87-23.53,23.34-24.19,1.99-.38,4.37.14,6.44-.01l-31.8,35.01,35.78,48.88h-26.33l-24.84-32.56-29.75,31.62-8.5.92,33.76-38.02L28.56,30.76h26.33ZM106.04,109.72c.68-1.21-2.69-5.61-3.55-6.82-15.64-22.02-33.36-42.78-49.01-64.82-3.41-2.72-8.79-.93-12.99-1.39l52.15,70.08c3.33,5.13,8.62,1.93,13.41,2.95Z"
          style="fill: #fff;"/>
    <path d="M106.04,109.72c-4.8-1.02-10.08,2.18-13.41-2.95L40.48,36.69c4.2.46,9.58-1.33,12.99,1.39,15.65,22.04,33.37,42.8,49.01,64.82.86,1.22,4.24,5.61,3.55,6.82Z"/>
</svg>