<svg width="96" height="96" fill="none" xmlns="http://www.w3.org/2000/svg">
    <g filter="url(#filter0_d_1_2442)" fill="#fff">
        <path d="M91 43.177l-.137-.001c-.1-.412-1.198-1.765-3.801-2.35a4.938 4.938 0 00-.839-.102C85.167 21.51 69.726 6.069 50.513 5.01a4.985 4.985 0 00-.1-.835c-.587-2.603-1.941-3.701-2.353-3.8V.352l-.06.01c-.038-.007-.06-.125-.06-.125s0 .124-.002.138c-.411.099-1.764 1.197-2.35 3.801a5 5 0 00-.103.896c-18.835 1.443-33.863 16.715-34.9 35.661-.581-.04-1.142-.02-1.647.093-2.603.585-3.7 1.938-3.8 2.35h-.022s.002.022.01.06c-.008.04-.126.061-.126.061h.139c.1.412 1.196 1.766 3.8 2.35.523.118 1.105.135 1.709.09 1.417 18.573 16.28 33.434 34.855 34.851-.047.604-.03 1.186.087 1.71.586 2.604 1.938 3.701 2.35 3.801l.002.022s.021-.002.06-.01c.039.008.06.126.06.126v-.138c.412-.1 1.766-1.197 2.351-3.801.114-.506.132-1.068.092-1.65C69.45 79.61 84.718 64.585 86.163 45.752c.312-.013.616-.04.9-.104 2.604-.585 3.702-1.939 3.802-2.351h.022s-.002-.021-.01-.06c.007-.039.123-.06.123-.06zm-41.128 34.49c-.653-1.963-1.594-3.59-1.855-3.633-.005-.001-.011.002-.016.005-.006-.003-.013-.006-.017-.005-.259.042-1.186 1.644-1.84 3.588-17.429-1.122-31.408-15.1-32.532-32.528 1.944-.653 3.548-1.582 3.591-1.84a.047.047 0 00-.004-.017c.002-.006.005-.012.004-.018-.043-.26-1.67-1.203-3.636-1.856C14.304 23.646 28.32 9.31 45.901 8.055c.636 2.283 1.79 4.336 2.082 4.385a.042.042 0 00.018-.004c.005.003.01.005.017.004.295-.05 1.465-2.136 2.097-4.442 17.873.867 32.256 15.252 33.121 33.125-2.304.632-4.39 1.801-4.439 2.097a.04.04 0 00.005.018.027.027 0 00-.005.017c.05.292 2.1 1.445 4.383 2.081-1.258 17.58-15.592 31.592-33.308 32.33z"/>
        <path d="M63.78 41.073c-6.964-4.048-13.893-8.15-20.831-12.24-1.13-.654-2.496-.416-3.27.58-.355.461-.483.99-.483 1.571V55.46c.003 1.28.736 2.205 1.978 2.495.607.138 1.168 0 1.698-.303 1.317-.787 2.637-1.558 3.96-2.34 5.65-3.32 11.287-6.669 16.955-9.95 1.623-.944 1.623-3.34-.008-4.288z"/>
    </g>
</svg>