<?xml version="1.0" encoding="UTF-8"?>
<svg xmlns="http://www.w3.org/2000/svg" viewBox="0 0 453.54 172.91">
  <path d="M115,33.21v22.01c0,1.84,3.06,2.51,5.76,2.96v-24.89c-.77.53-1.75.86-2.82.86-1.12,0-2.15-.36-2.93-.94ZM117.93,32.31c1.87,0,3.38-1.64,3.38-3.67s-1.52-5.97-3.38-5.97-3.38,3.94-3.38,5.97,1.52,3.67,3.38,3.67ZM105.07,73.98v11.08h10.73c5.46,0,11.35-.89,15.61-2.05v-13.5h2.68c-2.01-5.48-6.73-9.64-12.54-10.81h-6.76c-5.73,1.16-10.38,5.19-12.43,10.59h17.52s-14.24,1.09-14.81,4.69ZM142.94,88.63h-49.8v10.21h41.59c9.82,0,8.21-10.21,8.21-10.21ZM147.94,101.37h-62.35c0,3.22,3.39,4.55,3.39,4.55v45.73s.49,13.01-8.5,21.26c6.46-2.13,12.85-4.83,18.21-7.73v-47.02c0-4.03,3.24-7.3,7.25-7.3s7.26,3.27,7.26,7.3v37.4c3.7-2.97,7.06-6.12,10.12-9.41v-27.99c0-4.03,3.25-7.3,7.26-7.3s7.26,3.27,7.26,7.3v7.81c4.57-8.29,7.81-16.71,10.11-24.61Z" style="fill: #f7a600;"/>
  <path d="M0,0v69.11c0,22.61,11.34,83.07,73.7,103.8-9.24-8.3-8.5-21.26-8.5-21.26v-30.61c-11.79,7-11.62,28.73-11.62,28.73-25.65-48.66,12.74-58.9,26.1-66.68,13.89-8.1,9.39-20.77,9.39-20.77.02,9.73-7.17,15.33-21.26,16.28-14.41.97-19.45,12.21-19.45,12.21,0,0-10.46-5.83-8.89-16.94.79.39,16.09,6.05,20.48-9.1,0,0-9.52-8.18-16.1-6.95-6.58,1.23-6.96,6.51-6.96,6.51,0,0-13.94-5.16-4.08-15.08-4.33,2.97-8.41.77-8.41.77,0,0,4.07-6.62,22.91-17.1-.17-.32-.25-.78-.18-1.17,0,0,1.3-10.7,26.29-14.94,21.06-3.57,44.06,5.67,47.9-16.82H0ZM51.01,36.27s7.79,1.55,11.19-.66c3.4-2.21-4.08-3.29-7.24-3.65l-3.95,4.31Z" style="fill: #ce1531;"/>
  <path d="M320.41,89.09c-2.86,0-5.18,2.32-5.18,5.17s2.32,5.17,5.18,5.17,5.17-2.32,5.17-5.17-2.32-5.17-5.17-5.17ZM207.94,106.41c-1.84-.54-3.92-.77-6.23-.77-10.76,0-18.14,8.07-18.14,21.6s7.07,20.98,19.29,20.98c6.46,0,11.14-1.15,14.45-3v-54.84h-9.38v16.03ZM207.94,141.3c-1.08.69-2.61.92-4.84.92-7.22,0-10.22-6.15-10.22-15.53,0-8.76,2.77-15.76,10.91-15.76,1.46,0,2.84.15,4.15.54v29.82ZM315.69,147.45h9.38v-41.43h-9.38v41.43ZM356.6,101.64l-4.73-9.71c-.86-1.67-2.59-2.84-4.59-2.84s-3.65,1.1-4.53,2.69l8.7,9.87h5.15ZM439.46,141.69c-6.84,0-10.76-3.84-11.52-11.53,10.7,0,21.74-1.27,25.59-3.69.38-13.91-5.61-21.21-16.6-21.21s-17.68,7.84-17.68,21.37,7.46,21.6,19.21,21.6c6.3,0,10.76-1.31,13.68-2.92l-2.23-5.92c-2.23,1.15-5.69,2.31-10.45,2.31ZM436.62,111.02c5.15,0,8.15,3.54,8.15,11.92-4.64,1.78-11.81,2.46-17.04,2.46-.23-9.92,3.44-14.37,8.9-14.37ZM244.28,105.25c-10.84,0-17.68,7.84-17.68,21.37s7.45,21.6,19.21,21.6c6.3,0,10.76-1.31,13.68-2.92l-2.23-5.92c-2.23,1.15-5.69,2.31-10.46,2.31-6.84,0-10.75-3.84-11.52-11.53,10.7,0,21.74-1.27,25.59-3.69.38-13.91-5.61-21.21-16.6-21.21ZM235.08,125.39c-.23-9.92,3.44-14.37,8.9-14.37,5.15,0,8.15,3.54,8.15,11.92-4.64,1.78-11.81,2.46-17.04,2.46ZM352.6,105.25c-10.84,0-17.68,7.84-17.68,21.37s7.46,21.6,19.21,21.6c6.3,0,10.76-1.31,13.68-2.92l-2.23-5.92c-2.23,1.15-5.69,2.31-10.45,2.31-6.84,0-10.75-3.84-11.52-11.53,10.7,0,21.74-1.27,25.59-3.69.38-13.91-5.61-21.21-16.6-21.21ZM343.39,125.39c-.23-9.92,3.44-14.37,8.9-14.37,5.15,0,8.15,3.54,8.15,11.92-4.64,1.78-11.81,2.46-17.04,2.46ZM377.28,127.65c0,12.53,6.76,20.21,16.68,20.21,3.54,0,6.15-.61,7.76-1.54v5.79c0,8.69-10.68,13.41-15.14,14.95l2.15,5.7c9.17-1.7,22.06-9.84,22.06-21.65v-42.84c-2.61-1.69-7.38-3-13.45-3-13.37,0-20.06,8.91-20.06,22.37ZM401.72,141.1c-1.3.77-3.15,1.31-5.3,1.31-6.92,0-9.84-5.15-9.84-15.22s3-16.37,10.3-16.37c2,0,3.61.23,4.84.92v29.36ZM292.31,129.39v-39.01h-9.84v36.15c0,13.99,8.43,20.92,20.19,20.92h4.26v-6.53h-2.62c-6.84,0-11.98-3.77-11.98-11.53Z" style="fill: #ce1531;"/>
  <path d="M266.74,27.51c-11.12,0-16.51,8.77-16.51,20.63s5.38,20.56,16.51,20.56,16.51-8.84,16.51-20.56-5.31-20.63-16.51-20.63ZM266.74,62.58c-6.19,0-7.59-7-7.59-14.52s1.25-14.88,7.59-14.88,7.59,7.29,7.59,14.88-1.18,14.52-7.59,14.52ZM306.98,53.88c-.81,2.95-1.03,5.45-1.03,5.45h-.15s-.15-2.58-.96-5.45l-7-25.64h-9.58l12.97,39.71h8.55l12.75-39.71h-8.4l-7.15,25.64ZM199.74,16.53c-5.82,0-10.76,1.18-14,2.87v48.56h9.14v-20.04l1.99.15c15.11,1.11,21.37-6.56,21.37-15.77s-5.46-15.77-18.49-15.77ZM196.79,42.54l-1.92-.15v-19.67c.89-.37,2.51-.81,4.72-.81,6.93,0,9.65,3.46,9.65,10.32s-3.31,11.05-12.45,10.32ZM226.8,30.38v37.58h8.99v-33.52c2.06-1.18,5.38-1.33,8.4-.3l1.77-6.56c-10.02-.29-15.03.81-19.16,2.8ZM365.52,27.51c-6.71,0-11.79,1.1-15.55,2.87v37.58h8.99v-33.67c1.69-.66,3.24-1.1,6.19-1.1,5.67,0,7.15,3.39,7.15,6.63v28.15h8.99v-28.29c0-6.41-3.9-12.16-15.77-12.16ZM408.05,62.21c-5.53,0-8.55-5.6-8.55-14.37s2.58-14.22,8.7-14.22c2.58,0,4.2.81,5.3,1.69l1.92-5.08c-1.47-1.25-4.35-2.73-9.21-2.73-8.84,0-15.77,7.29-15.77,20.48s6.63,20.71,15.69,20.71c4.79,0,7.74-1.25,9.36-2.73l-2.06-5.53c-1.25,1.03-2.95,1.77-5.38,1.77ZM330.06,67.96h8.99V28.24h-8.99v39.71ZM334.54,12.05c-2.72,0-4.92,2.2-4.92,4.92s2.2,4.92,4.92,4.92,4.93-2.2,4.93-4.92-2.21-4.92-4.93-4.92ZM440.04,62.43c-6.56,0-10.31-3.68-11.05-11.05,10.26,0,20.84-1.22,24.53-3.54.37-13.34-5.38-20.34-15.92-20.34s-16.95,7.52-16.95,20.48,7.15,20.7,18.42,20.7c6.04,0,10.32-1.25,13.12-2.8l-2.14-5.67c-2.14,1.11-5.45,2.21-10.02,2.21ZM437.32,33.03c4.94,0,7.81,3.39,7.81,11.42-4.45,1.7-11.32,2.36-16.34,2.36-.22-9.5,3.3-13.78,8.53-13.78Z" style="fill: #ce1531;"/>
</svg>