<?xml version="1.0" encoding="UTF-8"?>
<svg id="uuid-b8de6293-e49a-411d-80ee-beb37dde1741" xmlns="http://www.w3.org/2000/svg" viewBox="0 0 131.76 39.48">
  <defs>
    <style>
      .white {
        fill: #fff;
      }
    </style>
  </defs>
  <path class="white" d="M74.4,4.68l8.88,4.2-8.76,4.57c-.47.71-.6,4.43,0,4.55l13.64-7.24c1.39-1.38,1.04-2.71-.49-3.77l-13.04-7h-.48c.17,1.02-.34,4.03.24,4.68Z"/>
  <path class="white" d="M54,18v-4.44c0-.49-7.88-3.68-8.88-4.32l.71-.73,8.13-3.75.04-4.76h-.24l-13.52,7.24c-1.03.62-1.18,2.12-.51,3.08,4.54,2.88,9.46,5.25,14.28,7.68Z"/>
  <path class="white" d="M128.28,31.2c-.29-.11-.01-.85-.12-.96-.06-.06-1.54-.04-1.65.03-.39.25-1.64,7.87-1.95,8.97.02.17,2.31.19,2.39.11.24-.23.82-5.54,1.34-6.46.56-.98,2.7-.24,2.98-.5.1-.1.03-1.63.49-1.91v-.48c-1.47-.12-2.56-.07-3.48,1.2Z"/>
  <path class="white" d="M2.67,26.67l-2.67,12.69h5.64c.73,0,1.71-1.18,1.99-1.85.39-.91,1.97-8.2,1.86-8.96-.4-2.94-4.75-1.66-6.82-1.88ZM6.81,29.96c-.07.81-1.14,6.02-1.42,6.51-.44.77-1.52.44-2.27.49l1.44-7.92,2.14.02c.15.3.14.57.11.9Z"/>
  <path class="white" d="M74.15,29.39c.96-1.08,4.84.98,4.57-2.75h-4.92c-1.03,0-1.85,1.28-2.16,2.16-.33.95-1.86,8.07-1.76,8.7.45,2.77,4.67,1.67,6.65,1.83l1.47-7.17c-.46.09-2.18-.14-2.38.02-.23.2-.71,4.55-1.02,4.74-.13.09-1.72.09-1.86,0-.16-.1-.19-.7-.17-.94.07-.72,1.3-6.31,1.56-6.61Z"/>
  <path class="white" d="M106.8,30.72l.72-3.6c-.46.09-2.18-.14-2.38.02-.47.41-2.03,10.77-2.66,12.21.52-.11,2.05.17,2.37-.03.98-.64.2-8.26,3.63-6.93.32.95-1.45,6.71-1.2,6.96h2.39c.23-3.44,4.24-11.82-2.87-8.64Z"/>
  <path class="white" d="M122.53,29.99c-1.51-.18-4.23-.28-4.98,1.28-.31.64-1.36,5.34-1.37,6.08-.06,2.76,4.33,1.89,6.06,2.02l.64-2.17h-4.08v-1.44h4.8c.3-1.9,1.91-5.42-1.07-5.77ZM121.67,34.07c-.13.13-1.96-.06-2.39.01-.07-.07.24-1.66.47-1.81.31-.22,1.83-.21,2.07.12.13.18-.09,1.62-.15,1.68Z"/>
  <path class="white" d="M63.49,29.99c-1.51-.18-4.23-.28-4.98,1.28-.31.64-1.36,5.34-1.37,6.08-.06,2.76,4.33,1.89,6.06,2.02l.64-2.17h-4.08v-1.44h4.8c.3-1.9,1.91-5.42-1.07-5.77ZM62.63,34.07c-.14.13-1.96-.06-2.39.01-.07-.07.24-1.66.47-1.81.31-.22,1.83-.21,2.07.12.13.18-.09,1.62-.15,1.68Z"/>
  <path class="white" d="M36.85,29.99c-1.51-.18-4.23-.28-4.98,1.28-.31.64-1.36,5.34-1.37,6.08-.06,2.76,4.33,1.89,6.06,2.02l.64-2.17h-4.08v-1.44h4.8c.3-1.9,1.91-5.42-1.07-5.77ZM35.99,34.07c-.14.13-1.96-.06-2.39.01-.07-.07.24-1.66.47-1.81.31-.22,1.83-.21,2.07.12.13.18-.09,1.62-.15,1.68Z"/>
  <path class="white" d="M15.97,29.99c-1.51-.18-4.23-.28-4.98,1.28-.31.64-1.36,5.34-1.37,6.08-.06,2.76,4.33,1.89,6.06,2.02l.64-2.17h-4.08v-1.44h4.8c.3-1.9,1.91-5.42-1.07-5.77ZM15.11,34.07c-.14.13-1.96-.06-2.39.01-.07-.07.24-1.66.47-1.81.31-.22,1.83-.21,2.07.12.13.18-.09,1.62-.15,1.68Z"/>
  <path class="white" d="M81.04,30.23l-.64,2.17h3.48c.41,0,.22,1.05.09,1.17-.55.52-3.94-1.1-5.06,1.78-1.04,2.65-.29,4.43,2.79,3.99.78-.11,1.13-.55,1.82-.7-.26,1.16.83.65,1.67.71-.09-1.93,1.94-6.53,1.27-8.09-.74-1.7-3.9-.8-5.42-1.03ZM80.98,37.21c-.2-2.13.75-2.07,2.54-1.93.07,1.67-.85,2.77-2.54,1.93Z"/>
  <path class="white" d="M42.48,31.2c-.05-.23.07-.89,0-.96-.06-.06-1.54-.04-1.65.03-.39.25-1.68,7.98-1.95,9.09.43-.08,2.26.12,2.39,0,.24-.23.87-5.47,1.39-6.41.48-.86,2.16-.79,2.22.05.1,1.48-1.28,4.71-1.45,6.36.58-.1,2,.2,2.42-.1.36-.26,1.22-6.33,1.65-7.24,0-.37-.29-1.22-.54-1.46-1.1-1.1-3.59-.59-4.49.65Z"/>
  <path class="white" d="M51.6,31.2c-.05-.23.07-.89,0-.96-.06-.06-1.54-.04-1.65.03-.39.25-1.68,7.98-1.95,9.09.43-.08,2.26.12,2.39,0,.24-.23.87-5.47,1.39-6.41.48-.86,2.16-.79,2.22.05.1,1.48-1.28,4.71-1.45,6.36.58-.1,2,.2,2.42-.1.36-.26,1.22-6.33,1.65-7.24,0-.37-.29-1.22-.54-1.46-1.1-1.1-3.59-.59-4.49.65Z"/>
  <path class="white" d="M93.61,30.25c-.28.27-.85,6.17-1.69,6.59-.54.27-1.9.3-1.91-.46-.02-.93,1.66-5.93,1.43-6.14-.5.1-2.19-.21-2.43.14-.75,1.11-1,5.84-1.6,7.37.25,2.07,3.83,2.12,4.99.65-.29,1.16,1.59,1.32,1.88.56l1.73-8.72c-.43.08-2.26-.12-2.39.01Z"/>
  <path class="white" d="M28.59,30.27l-2.43,5.97-.48-1.8v-4.2c-1.7.01-2.45-.5-2.42,1.56.03,1.6.32,4.09.5,5.76.07.6.31,1.18.24,1.8l2.53.02,4.67-9.14-2.61.03Z"/>
  <path class="white" d="M102.72,30.36l-1.92-.13.48-2.64c-2.03-.79-1.76,2-2.64,2.52-.45.26-1.25,0-1.42.14-.07.06-.41,1.53-.46,1.82-.14.69.98.14,1.16.32.05,1.79-2.35,6.29.41,6.91,2.26.51,3.05-.02,2.95-2.35h-1.68c-.16-.16.56-4.39.73-4.55.23-.21,2.31.5,2.39-2.05Z"/>
  <path class="white" d="M20.66,27.14c-.47.41-2.03,10.77-2.66,12.21l2.43-.14,2.61-12.1c-.46.09-2.18-.14-2.38.02Z"/>
  <path class="white" d="M113.3,30.26c-.35.3-1.5,7.98-1.94,9.09l2.43-.14,1.89-8.98c-.46.09-2.18-.14-2.38.02Z"/>
  <path fill="#97477c" d="M66.37,13.67c-2.07-.28-2.67.49-2.29,2.53.19,1.04,2.51,1.09,3.06.54.59-.59.68-2.88-.77-3.07Z"/>
  <path fill="#feed6d" d="M64.67,6.49c2.07.28,2.67-.49,2.29-2.53-.19-1.04-2.51-1.09-3.06-.54-.59.59-.68,2.88.77,3.07Z"/>
  <path fill="#6ab42f" d="M61.2,3c.38-2.04-.22-2.81-2.29-2.53-1.45.2-1.36,2.48-.77,3.07.55.55,2.87.5,3.06-.54Z"/>
  <path fill="#45a7de" d="M69.47,4.57c2.2.26,2.58-.1,2.31-2.31-.16-1.33-2.53-1.23-3.08-.77-.57.48-.61,2.91.77,3.08Z"/>
  <path fill="#c02211" d="M69.49,8.63c-2.2-.27-2.58.11-2.31,2.31.16,1.34,2.64,1.21,3.08.77.41-.42.6-2.91-.77-3.08Z"/>
  <path fill="#2d4596"  d="M59.51,14.99c.19-.99.3-2.38-.82-2.52-2.75-.34-2.38.56-2.27,2.67.01.26.18.49.44.55.97.23,2.46.34,2.66-.69Z"/>
  <path fill="#ef8203" d="M60.52,9.91c.04.31.28.55.58.6.81.13,2.28.12,2.46.01.33-.21.73-2.84-.57-3.08-2.53-.47-2.75.33-2.47,2.46Z"/>
  <path class="white" d="M114,25.44c-.09.1-.1,2.23-.48,2.64,2.62.29,2.82-.11,2.88-2.64-.41.07-2.3-.1-2.4,0Z"/>
</svg>