<?xml version="1.0" encoding="UTF-8"?>
<svg xmlns="http://www.w3.org/2000/svg" viewBox="0 0 147.41 143.3">
  <path d="M124.91,0c.11.03.21.06.3.1,1.8-.09,3.58.43,5.25,1.05,9.51,3.54,16.65,13.33,16.95,23.49v93.62c-.52,13.71-12.18,24.86-25.85,25.04-31.87,0-63.74,0-95.62,0C11.56,142.99-.13,131.21,0,116.76V25.97C0,15.03,6.85,4.96,17.16,1.19c1.61-.59,3.32-1.13,5.05-1.09.12-.04.25-.08.4-.1h102.3Z" style="fill: #300;"/>
  <path d="M22.61,0c-.12.14-.27.08-.4.1v-.1h.4Z" style="fill: #baa;"/>
  <path d="M125.21,0v.1c-.11-.01-.25.04-.3-.1h.3Z" style="fill: #bfafaf;"/>
  <path d="M110.88,52.23c.12.11.23.54.23.72l-.05,47.46c-.08.29-.26.6-.6.6l-12.58-.03-.39-.41c-.16-15.98-.05-32.01-.05-48,.11-.51.69-.54,1.12-.58,3.67-.28,7.7.22,11.41,0,.21.02.79.11.92.23Z" style="fill: #ff9a00;"/>
  <path d="M109.87,44.77c-3.92,3.99-11.25,2.45-12.87-3.11-1.91-6.58,3.9-11.74,10.28-9.68,5.17,1.66,6.19,9.12,2.59,12.79Z" style="fill: #ff9a00;"/>
  <path d="M71.49,85.81h-22.72s-.15.15-.15.15l-4.51,14.09c-.13.38-.32.74-.7.9l-12.26.05c-1.09-.14-.17-1.99.05-2.66,6.16-18.73,13.21-37.18,19.4-55.9.65-1.83.65-3.77.82-5.68.07-.22.42-.27.63-.27h15.71c.3,0,.59.1.72.38l22.42,63.38c.03.38.02.73-.45.75h-13.11s-.54-.16-.54-.16l-5.32-15.03Z" style="fill: #ff9a00;"/>
  <path d="M67.81,73.3h-15.5c2.63-8.46,5.69-16.83,7.6-25.5l7.9,25.5Z" style="fill: #300;"/>
</svg>