<?xml version="1.0" encoding="UTF-8"?>
<svg xmlns="http://www.w3.org/2000/svg" viewBox="0 0 134.65 150.2">
  <polygon points="134.65 0 122.76 134.08 122.18 134.61 67.48 150.2 12.46 134.61 11.88 134.08 0 0 134.65 0" style="fill: #0277bc;"/>
  <path d="M31.07,31.82l36.25-.37V11.84h54.01l-9.79,113.23-44.22,12.57-.37-18.87c.1-.32.23-.32.37,0l.43-.92,29.67-9.64c1.87-24.83,3.6-50.84,4.77-75.65H31.53s-.45-.74-.45-.74Z" style="fill: #039ae4;"/>
  <path d="M84.71,79.18l-1.15,17.72-15.5,5.22h-.74v-22.94c5.79-.15,11.59-.15,17.39,0Z" style="fill: #039ae4;"/>
  <path d="M32.18,47.36h54.38s-1.11,15.91-1.11,15.91c-6.04,0-12.09-.01-18.13,0-.01-5.17,0-10.37,0-15.54l-35.14-.37Z" style="fill: #039ae4;"/>
  <path d="M31.07,31.82h72.13s-4.89,76.88-4.89,76.88l-31,10.07-.68-1.33-.17-12.79c-.24-1.75.28-2.59,1.58-2.52v-.78s14.8-5.04,14.8-5.04l1.08-16.73.77-.39-17.73-.18c-.73-5.22-.57-10.54.34-15.73,5.78-.82,11.61-.83,17.44-.72l1-14.3c-5.91-.19-11.92-.24-18.02-.15l-.53-.56-35.03-.18-1.11-15.54Z" style="fill: #fdfdfd;"/>
  <path d="M66.95,118.77l-30.63-10.07-1.19-21.75h15.54l.41,9.95,16.24,5.22c.12-.98.46-.94.74,0-.71.35-.7.52-.77,1.26-.4,4.92.35,10.41.03,15.39h-.37Z" style="fill: #ededed;"/>
  <path d="M67.32,63.27c.01,5.17,0,10.37,0,15.54l17.39.37c-5.79,0-11.6.01-17.39,0s-11.6,0-17.39,0l-.74-15.91c6.04,0,12.09.01,18.13,0Z" style="fill: #ededed;"/>
</svg>