<?xml version="1.0" encoding="UTF-8"?>
<svg xmlns="http://www.w3.org/2000/svg" viewBox="0 0 151.01 150.48">
    <rect width="151.01" height="150.48" rx="33.78" ry="33.78" style="fill: #2e3139;"/>
    <path d="M95.61,56.08l-.27.32h-2.87s-.27-.32-.27-.32c-5.2.37-10.43.48-15.68.34-.54.1-.86-.01-.98-.34-.33-12.23-.33-24.46,0-36.68,7.29,0,20.46-1.18,26.7,1.95,15.23,7.62,12.41,30.6-4.29,34.28-.78.17-1.59.22-2.35.46Z"
          style="fill: #fe7262;"/>
    <path d="M75.55,19.39v36.68l-.46.23c-6.2-.04-12.44-.05-18.67.04-.15,0-.31-.04-.46-.08s-.31-.11-.47-.19c-11.54-1.32-19.26-12.44-15.85-23.74,2.14-7.11,8.81-12.45,16.27-12.95,6.19-.41,13.34,0,19.64,0Z"
          style="fill: #f14e1e;"/>
    <path d="M75.55,56.08c.13,0,.34.03.34.12.21,5.34.04,11.04-.34,16.36l.32.27v3.04s-.32.27-.32.27v16.64l-.12.34h-19.74l-.21-.34c-13.33-1.51-21-15.93-14.08-27.73,2.83-4.82,8.44-8.47,14.08-8.95,6.12-.52,13.76,0,20.06,0Z"
          style="fill: #a159fe;"/>
    <path d="M75.55,92.76c0,6.3.46,13.61,0,19.78-1.18,15.98-21.52,22.82-32.13,10.71-10-11.42-2.71-28.87,12.07-30.49h20.06Z"
          style="fill: #0ace82;"/>
    <path d="M95.61,56.08c15.8,1.35,22.5,21.58,10.46,32.1-11.25,9.84-29.26,2.73-30.52-12.06-.08-.96-.09-2.61,0-3.57.07-8.44,8.23-16.46,16.66-16.47.93-.08,2.47-.08,3.4,0Z"
          style="fill: #1abbfd;"/>
</svg>