<?xml version="1.0" encoding="UTF-8"?>
<svg xmlns="http://www.w3.org/2000/svg" viewBox="0 0 128.98 144.99">
  <polygon points="128.98 0 117.86 131.12 64.78 144.99 11.49 131.1 0 0 128.98 0" style="fill: #d0382b;"/>
  <path d="M64.31,27.16c13.53-.79,27.07-.95,40.61-.46l.46.75-1.03,15.07-.5.86c-13.18.4-26.39.44-39.55-.49-7.4.78-14.84.97-22.27.45l.53.12,1.33,14.66-.67.48,20.64.06c.18-.36.36-.65.54-.65,12.65-.17,25.63.06,38.06.5l.39.76c-1.36,16.7-2.86,33.36-4.5,50-11.05,3.18-22.2,6.14-33.46,8.89l-.6-.58-32.47-8.63-2.19-26.4h16.44l1.59,13.6c.51.79,14.6,3.39,16.63,3.92l.18-.77,16.98-3.49,2.5-19.76c-6.61.39-13.16.18-19.66-.64-11.91-.07-23.8-.35-35.71-.38l-4.21-47.35,1.14-.54c12.93.03,25.86.02,38.78.02Z" style="fill: #fefefe;"/>
  <path d="M64.31,27.16V11.08h54.66l-9.45,110.81-45.21,11.78v-16.08s33.54-8.62,33.54-8.62l4.33-49.99-58.95-.36.33-.71h19.83c.25-4.78.32-9.65.21-14.59l.71-.42c13.1-.02,26.21.01,39.3,0l1.07-15.73c-13.45,0-26.92,0-40.38,0Z" style="fill: #e83e30;"/>
  <path d="M64.31,75.41c6.61.04,13.23-.02,19.84,0l.54.54-2.58,20.48-17.8,3.64v-24.66Z" style="fill: #e83e30;"/>
  <path d="M64.31,42.89v15.73s-21.08,0-21.08,0l-1.43-15.73c7.5,0,15.01.01,22.51,0Z" style="fill: #d0382b;"/>
</svg>