<?xml version="1.0" encoding="UTF-8"?>
<svg xmlns="http://www.w3.org/2000/svg" viewBox="0 0 512 499.99">
    <path d="M432,0c41.64,1.48,78.21,38.45,80,79.91v330.63c-.82,1.89-.82,4.09,0,5.99v3c-2.46,43.69-43.77,82.67-88,78.91-23.82,1.3-47.76,1.51-71.64,1.55-89.2-1.49-177.65-1.67-265.36-.55h-1c-43.72.02-83.49-35.91-86-79.91V78.91C1.66,39.23,39.69.08,80,0h352Z"
          style="fill: #49021f;"/>
    <path d="M139,127.86h45.5c.11,0,1.5,1.39,1.5,1.5v221.75c0,.17-1.54,1.76-2.02,1.98-1.96.91-37.26,1.08-41.54.57-2.74-.33-3.52-.99-4.22-3.78l-.27-216.58,1.05-5.45h0Z"
          style="fill: #fe3366;"/>
    <path d="M378.05,110.55c-.33-1.4-4.27-1.63-5.5-1.71-5.17-.35-38.08-.58-40.53.56-.47.21-1.93,1.65-2.02,1.98h.02v67.43h-27.5c-4.89,0-18.83,4.15-24.02,5.98-47.58,16.72-68.55,66.44-55.2,114.1,16.98,60.65,88.49,64.94,139.48,49,2.93-.92,15.33-4.73,16.07-6.92l-.8-230.42ZM330.01,313.65h-.01c-24.59,4.02-50.74-.96-59.04-27.43-7.95-25.35-1.11-52.36,24.37-63.65,10.3-4.56,24.39-6.8,34.68-2.32v93.4Z"
          style="fill: #fe3366;"/>
</svg>