<?xml version="1.0" encoding="UTF-8"?>
<svg xmlns="http://www.w3.org/2000/svg" viewBox="0 0 126.28 143.38">
  <path d="M.01.12C41.99-.02,84.01-.04,126.07.06c.13.28.2.58.2.91-3.78,42.57-7.64,85.13-11.58,127.69l-.35.23-51.48,14.49-51.07-14.29c-.13-.08-.41-.26-.41-.28C7.61,88.95,4,49.06.47,9.17c.1-2.63.05-5.19-.46-7.53C-.03,1.15.04.62.01.12Z" style="fill: #d2b52a;"/>
  <polygon points="58.18 27.59 58.18 111.9 21.37 101.98 21.37 86.91 45.59 93.4 45.79 27.59 58.18 27.59" style="fill: #eaeded;"/>
  <polygon points="114.64 11.37 104.88 121.32 63.42 132.71 63.16 132.67 62.94 131.27 62.94 12.8 63.14 11.37 114.64 11.37" style="fill: #fad625;"/>
  <path d="M80.5,64.6l24.99-2.67-3.33,41.02-33.86,8.76-.18-14.87,24.4-6.31c.22-4.07.26-8.14.39-12.2l-24.41,4.01-.38-54.56,40.25-.09-1.15,14.78-26.7.19v21.94Z" style="fill: #fefefe;"/>
</svg>