<?xml version="1.0" encoding="UTF-8"?>
<svg xmlns="http://www.w3.org/2000/svg" viewBox="0 0 142.91 147.12">
  <path d="M30.55,0l28.21,16.21c.45.19,1.16,1.15,1.16,1.6v59.53l23-13.21.08-30.92c.26-.68.71-1.18,1.35-1.53l27.25-15.67c.78-.46,1.59-.55,2.41-.12,8.68,5.25,17.74,9.93,26.41,15.2,1.15.7,2.35,1.13,2.49,2.67-.07,10.76.11,21.55-.09,32.3-.17.62-.58,1.06-1.08,1.44l-26.48,15.25c-.19,10.3.09,20.63-.14,30.91-.19.66-.6,1.11-1.2,1.44-18.66,10.6-37.14,21.56-55.88,32.01-1.24.21-2.53-.8-3.59-1.39-18.1-10.04-35.8-20.89-53.82-31.07-.28-.35-.53-.73-.63-1.17L.02,17.62c.21-.82.78-1.25,1.47-1.65L29.23,0h1.32ZM52.85,18.11c-7.72-4.19-15.22-8.84-22.94-13.04L7.73,17.77l-.68.52,22.84,13.13,22.81-13.04.15-.27ZM89.9,33.93l22.96,13.15,22.96-13.21-22.96-13.21-22.96,13.27ZM55.25,140.77v-26.44l-26.34-14.9c-1.01-.67-1.28-1.25-1.36-2.48l-.02-61.37L4.65,22.3v89.27l50.6,29.2ZM55.25,80.1V22.3l-23.02,13.25v57.73l23.02-13.19ZM110.52,51.08l-22.9-13.07v26.08l22.9,13.13v-26.14ZM138.22,38.01l-23.02,13.25v26.08l23.02-13.19v-26.14ZM85.07,68.25l-50.01,28.78-.32.28,21.86,12.43,1.07.44,50.32-28.7v-.23s-22.29-12.84-22.29-12.84c-.2-.12-.39-.22-.63-.15ZM110.52,85.49l-50.6,28.84v26.44l50.6-29.2v-26.08Z" style="fill: #fe2d20;"/>
</svg>