<?xml version="1.0" encoding="UTF-8"?>
<svg xmlns="http://www.w3.org/2000/svg" viewBox="0 0 134.4 132.87">
  <path d="M24.91.15c.17-.1.4-.17.53,0,.39-.19,1.1-.21,1.48,0,.16-.12.26-.11.21.11.39-.05.97-.12,1.26.11.31,0,.59.03.84.11.46,0,.98.23,1.37.42.2-.03.53.04.63.21.26,0,.48.07.63.21.27.12.55.19.84.21.04.02.07.09.11.11.16.02.32.08.42.21.19.02.3.09.32.21.26.05.56.11.74.32.32.06.59.22.84.42.38.09.79.23,1.05.53.13.07.29.14.42.21.42.13.86.29,1.16.63.18.1.35.21.53.32l.42.21s.07.08.11.11c.14.01.27.07.32.21.16.06.34.17.42.32.19,0,.35.14.42.32.14.1.28.21.42.32.26.2.51.41.74.63.21.17.41.38.63.53.25.06.46.24.63.42.26.08.51.08.74,0,.23.04.36.09.63.11.39.11.77.18,1.16.21.09-.08.23-.08.32,0,.59.09,1.2.09,1.79,0,.21,0,.42,0,.63,0,.46.04.88.14,1.26.32.09,0,.36-.14.63-.11.21.23.54.32.84.32.03,0,.07,0,.11,0,.15.05.25.12.32.21.24,0,.45.04.63.11.09-.07.24-.03.21.11.2,0,.38.03.53.11.15-.08.43.06.53.21.32,0,.78.05,1.05.21.19-.04.53.04.63.21.22,0,.39.03.53.11.17.09.35.12.53.11.1.03.16.09.21.11.18.12.39.23.63.32.06.02.15-.02.21,0,.14.12.28.22.42.32.34.07.71.19.95.42.12.05.26.12.42.21.15.1.29.23.42.32.18.03.38.13.42.32.13-.13.35.06.42.21.04.02.17.03.32.11.16.16.34.3.53.42.18.03.35.1.53.21.11.07.21.14.32.21.4.17.77.41,1.05.74.03.02.08-.01.11,0l.32.21.84.53s.07.07.11.11c.18.03.32.14.42.32.22.06.36.13.42.21.16.15.53.38.74.53.21.05.39.15.53.32.11.07.21.15.32.21l.84.63c.11.05.18.12.21.21.28.11.52.29.74.53.28.08.49.22.63.42.11.07.21.15.32.21.14.12.28.23.42.32.1.1.21.22.32.32.36.22.72.47,1.05.74.04.04.06.17.11.21.25.03.4.23.53.42l.63.53c.29.11.5.28.63.53.1.08.22.13.32.21.31.29.63.57.95.84.22.08.41.31.53.53.29.24.56.49.84.74.84.78,1.65,1.59,2.42,2.42.15.06.24.18.32.32.25.28.49.57.74.84.28.16.49.4.63.74.24.13.42.31.53.53.18.21.35.42.53.63.21.1.35.27.42.53l.42.42c.04.06.06.15.11.21.18.07.31.22.32.42.17.15.31.32.42.53.21.13.38.28.42.53.04.05.14.12.21.21.09.21.26.37.42.53.05.08.07.16.11.21.16.08.27.22.32.42l.32.32c.18.2.32.41.42.63.1.14.21.28.32.42.06.11.15.21.21.32l.32.42c.06.11.14.21.21.32.17.13.27.32.32.53.11.16.29.33.42.53.03.07.1.21.21.42.03.04.07.07.11.11.06.17.18.31.32.42.17.25.28.48.42.74.13.09.23.23.32.42.22.43.51.83.74,1.26.15.2.29.41.42.63.18.32.36.62.53.95l.32.74.21.32c.05.11.07.23.11.32.19.08.23.35.21.53.22.27.36.6.42.95.05.11.14.26.21.42l.21.53c.02.2.09.38.21.53.04.12.07.23.11.32.13.14.2.32.21.53l.21.53.21.53c.04.07.07.14.11.21,0,.06.03.17.11.32.13.1.21.35.21.53.07.16.14.33.21.53.09.1.12.21.11.32.18.23.38.55.42.84.08.15.15.33.21.53.15.15.26.36.32.63l.32.84c.08.13.15.27.21.42.16.23.27.47.32.74.14.1.2.26.21.42.02.04.08.07.11.11l.32.74c.23.36.41.75.53,1.16.03.07.07.14.11.21.15.17.26.38.32.63.16.23.26.47.32.74.12.23.29.49.42.74l.32.84.21.42c.13.05.2.18.21.32.13.25.23.57.32.74.13.05.2.2.21.42.02.03.14.1.21.21,0,.13.07.31.21.53l.32.74c.14.1.18.27.21.42.14,0,.18.18.21.32.04.08.07.15.11.21l.21.53.21.42.21.53c.09.08.16.18.21.32.16.23.27.47.32.74.1.21.21.43.32.63l.21.42c.14.08.21.22.21.42.03.04.08.07.11.11l.21.32c.12.11.23.25.32.42.15.15.26.32.32.53.08.09.3.23.42.32l.53.21s.07,0,.11,0c.08.06.15.13.21.21.28,0,.49.08.63.21.37.13.72.27,1.05.42.09-.04.21,0,.21.11.5.08.96.34,1.37.63.38.08.73.22,1.05.42.12.03.26.07.42.11.03,0,.07,0,.11,0,.23.2.47.38.74.53.17-.01.39.03.42.21.5.18.92.32,1.26.42.07.03.14.07.21.11.18.09.32.2.42.32.06.03.13.06.21.11.2.03.46.13.53.32.12-.09.28.06.32.21.11-.07.25-.03.42.11.13.2.4.27.63.32.04.03.08.08.11.11.22.2.47.38.74.53.04.03.07.08.11.11.18.04.35.14.42.32.06.03.14.06.21.11.17.09.31.19.42.32.12.02.22.09.32.21l.63.42.42.32c.21.05.35.15.42.32.06.03.15.07.21.11.21.05.35.16.42.32.13.08.18.11.32.21.14.02.27.07.32.21l.32.21s.07.07.11.11c.23.06.43.2.53.42.12.1.27.19.42.32.2.01.32.17.42.32.03.04.07.07.11.11.18.04.36.13.42.32.23.09.41.23.53.42.1.06.23.16.32.21.21.12.39.26.53.42.11.07.21.14.32.21.16.19.34.37.53.53.12,0,.26.09.32.21.33.17.61.46.84.74.23.11.44.25.63.42.22.14.39.32.53.53.06.04.15.06.21.11l.32.32c.44.32.85.71,1.16,1.16l.32.32.32.53c.18.15.32.33.42.53l.32.42.32.42.42.53.42.42c.32.23.47.75.21,1.05-.19.19-.48.25-.74.21-.21.16-.47.22-.74.21-.4.16-.82.3-1.26.42-.18.09-.36.13-.53.11-.29.11-.61.18-.95.21-.08.1-.22.17-.42.21-.07,0-.14,0-.21,0-.12.08-.29.07-.42,0-.27.07-.55.14-.84.21l-.53.11c-.11,0-.21,0-.32,0-.39.09-.78.13-1.16.11-.43.13-.93.15-1.37.11-.36.11-.75.18-1.16.21-.14.08-.32.15-.53.21-.14.03-.29.07-.42.11-.36.05-.71.12-1.05.21-.25.11-.53.18-.84.21-.21.09-.42.2-.63.32-.03,0-.07,0-.11,0l-.53.11c-.19.04-.37.04-.53,0-.18.13-.5.24-.74.21-.49.05-.63.15-.42.32.13.16.14.4.21.53l.21.42c.22.13.36.31.42.53.13.15.48.5.63.63.3.09.53.31.74.53.45.36.9.72,1.37,1.05.18.02.34.16.42.32.24.09.48.19.74.32.08.05.14.16.21.21.27.04.46.23.63.42.19.03.3.1.32.21.29.1.53.21.74.32.04.03.07.08.11.11.2.11.39.26.53.42.18.03.35.1.53.21.15.1.28.22.42.32.11.13.26.18.42.21.33.21.42.25.74.42l.32.42c.14.05.25.12.32.21l.74.63s.07.07.11.11c.27.08.48.26.63.53.33.14.58.35.74.63.3.26.54.44.84.74l.32.32c.07.07.14.14.21.21.27.14.49.36.63.63.03.04.07.07.11.11.28.2.52.44.74.74.11.14.21.28.32.42.14.07.31.16.32.32.14.09.25.24.32.42.12.15.22.31.32.42.21.1.35.28.42.53.85.77,1.66,1.58,2.42,2.42.04.07.07.14.11.21.13.15.24.32.32.53.01.03-.01.08,0,.11l.21.42c.03.06.07.12.11.21l.32.74c.54.4-.02.49-.42.21-.07-.07-.14-.14-.21-.21-.45-.31-.81-.74-1.16-1.16-.19-.11-.33-.18-.42-.21-.04-.03-.07-.07-.11-.11-.23-.26-.53-.47-.84-.63-.08-.07-.15-.16-.21-.21-.3-.24-.62-.45-.95-.63-.35-.28-.7-.57-1.05-.84-.16-.07-.33-.16-.42-.32-.21-.06-.39-.25-.53-.42-.16-.06-.33-.17-.42-.32-.34-.1-.67-.3-.95-.53-.03-.01-.08.01-.11,0-.08-.12-.19-.23-.32-.32-.31-.07-.56-.21-.74-.42-.24-.04-.47-.13-.63-.32l-.42-.21c-.27-.14-.55-.25-.84-.32-.07-.03-.14-.07-.21-.11-.12-.13-.26-.24-.42-.32-.28-.07-.56-.18-.84-.32-.28-.12-.53-.26-.74-.42-.16.05-.32-.08-.42-.21-.27-.04-.53-.14-.74-.32-.18-.03-.35-.1-.53-.21l-.32-.21c-.18-.03-.32-.1-.42-.21-.24-.1-.48-.21-.74-.32-.21-.12-.47-.22-.63-.32-.26-.23-.54-.44-.84-.63-.28-.17-.57-.35-.84-.53-.09-.17-.32-.35-.42-.32-.1-.07-.21-.14-.32-.21-.19-.19-.4-.37-.63-.53-.15-.11-.28-.21-.42-.32-.26-.14-.51-.32-.74-.53-.17-.07-.31-.18-.42-.32-.11-.07-.21-.14-.32-.21-.16-.22-.37-.4-.63-.53-.16-.14-.37-.37-.53-.53-.21-.31-.46-.59-.74-.84-.25-.21-.42-.45-.53-.74-.17-.14-.35-.32-.53-.53-.04-.07-.07-.14-.11-.21-.12-.2-.26-.37-.42-.53-.01-.03.01-.08,0-.11l-.42-.53c-.15-.19-.29-.38-.32-.63-.24-.27-.36-.7-.42-1.05-.16-.15-.28-.41-.32-.63-.27-.29-.46-.73-.11-1.05.05-.2.16-.3.32-.32.05-.12.18-.22.32-.21.09-.14.26-.25.42-.21.04-.12.14-.19.32-.21.07-.03.13-.07.21-.11.25.05.43-.02.53-.21.02,0,.2,0,.32,0l.95-.21s.08-.15.21-.21c.18-.05.36-.08.53-.11.1-.12.28-.15.42-.11.27-.22.62-.27.95-.32.14-.18.41-.23.63-.21.34-.09.48-.16.42-.21.08-.02.16-.07.32-.11.36.02.71-.02,1.05-.11.26-.08.54-.12.84-.11.43-.12.89-.19,1.37-.21.29-.13.64-.2,1.05-.21.06-.01.14-.09.21-.11.57.03,1.14.07,1.69.11.35-.09.71-.15,1.05,0,1.17-.2,2.43-.27,3.54-.03l.25-.07c-.09-.03-.09-.07,0-.11l-.11-.42-.32-.42c-.27-.3-.55-.57-.84-.84-.22-.22-.47-.39-.74-.53-.14-.11-.27-.21-.42-.32-.15-.18-.37-.32-.63-.42-.03-.01-.08.01-.11,0-.16-.16-.33-.3-.53-.42-.19-.1-.37-.23-.53-.32-.27-.19-.55-.37-.84-.53-.03-.01-.08.01-.11,0-.17-.19-.35-.36-.53-.53-.23-.16-.48-.3-.74-.42-.1-.07-.22-.14-.32-.21-.08-.17-.31-.35-.42-.32-.1-.07-.21-.14-.32-.21-.1-.13-.24-.24-.42-.32-.07-.03-.14-.07-.21-.11-.19-.23-.43-.4-.74-.53l-.84-.63c-.07-.04-.14-.06-.21-.11-.32-.29-.67-.54-1.05-.74-.21-.13-.42-.28-.63-.42-.29-.22-.57-.43-.84-.63-.22-.02-.32-.09-.32-.21-.3-.08-.63-.2-.84-.42-.19-.02-.42-.17-.53-.32-.26-.06-.54-.15-.74-.32-.22.05-.51-.02-.74-.11-.03,0-.07,0-.11,0-.15-.12-.29-.22-.42-.32-.24-.04-.45-.11-.63-.21-.51-.08-1.02-.28-1.48-.53-.13.04-.32-.1-.42-.21-.28-.02-.61-.16-.84-.32-.35-.02-.7-.1-1.05-.21-.18-.04-.32-.11-.42-.21-.33,0-.67-.14-.95-.32-.46-.06-.96-.19-1.37-.42-.17,0-.34-.03-.53-.11l-.42-.32c-.21-.01-.39-.09-.53-.21-.19.03-.39-.07-.53-.21-.03-.01-.08.01-.11,0-.18-.21-.39-.4-.63-.53-.11-.11-.22-.19-.32-.32-.05-.19-.14-.33-.32-.42-.01-.03.01-.08,0-.11l-.42-.53c-.06-.22-.16-.39-.32-.53-.04-.07-.07-.14-.11-.21l-.32-.42c-.15-.28-.26-.56-.32-.84l-.42-.42s.01-.08,0-.11c-.15-.18-.25-.41-.32-.63-.14-.18-.31-.42-.32-.63-.12-.13-.19-.3-.21-.53-.1,0-.17-.11-.21-.32-.11-.2-.18-.41-.21-.63-.16-.22-.3-.47-.42-.74-.16-.12-.22-.34-.21-.53-.14-.15-.31-.42-.32-.63-.17-.21-.33-.57-.32-.84-.14-.05-.27-.27-.21-.42-.2-.18-.32-.47-.32-.74-.16-.08-.26-.38-.21-.53-.12-.07-.19-.21-.21-.42-.1-.08-.2-.18-.32-.32,0-.03,0-.07,0-.11-.13-.25-.2-.5-.21-.74-.12-.11-.23-.25-.32-.42-.19-.38-.33-.77-.42-1.16-.15-.1-.19-.26-.21-.42-.12-.08-.19-.22-.21-.42-.13-.05-.2-.18-.21-.32-.02-.04-.08-.07-.11-.11-.15-.43-.33-.85-.53-1.26-.13-.12-.23-.36-.21-.53-.15-.1-.19-.26-.21-.42-.09-.13-.2-.28-.32-.42,0-.03.01-.07,0-.11-.11-.16-.18-.33-.21-.53-.16-.19-.27-.4-.32-.63-.17-.21-.33-.57-.32-.84-.14-.05-.27-.27-.21-.42-.2-.18-.29-.47-.32-.74-.15-.08-.19-.27-.21-.42-.15-.08-.24-.26-.21-.42-.08-.16-.15-.34-.21-.53-.11-.05-.15-.2-.11-.32-.24-.34-.36-.75-.42-1.16-.14-.1-.21-.28-.21-.53-.11-.05-.15-.2-.11-.32-.12-.07-.14-.28-.11-.42-.17-.2-.34-.48-.32-.74-.09-.14-.2-.28-.32-.42-.01-.03.01-.07,0-.11-.08-.23-.19-.44-.32-.63-.04-.07-.07-.14-.11-.21-.04-.22-.15-.39-.32-.53-.11-.17-.18-.35-.21-.53-.22-.22-.35-.53-.42-.84-.17-.11-.28-.29-.32-.53-.14-.04-.22-.17-.21-.32-.21-.2-.35-.56-.42-.84-.21-.15-.37-.38-.42-.63-.07-.06-.14-.13-.21-.21-.22-.45-.57-.94-.84-1.37l-.21-.42-.32-.32-.32-.53c-.22-.27-.39-.55-.53-.84-.15-.1-.25-.25-.32-.42-.03-.04-.08-.07-.11-.11-.13-.25-.28-.5-.53-.63-.2-.26-.41-.65-.63-.95l-.21-.42c-.18-.13-.32-.33-.42-.53l-.42-.42-.42-.42-.42-.63c-.13-.14-.29-.28-.42-.42-.22-.34-.46-.65-.74-.95-.11-.11-.21-.21-.32-.32-.19-.24-.36-.49-.53-.74l-.42-.32c-.31-.33-.59-.68-.84-1.05-.12-.1-.23-.17-.32-.21-.18-.21-.42-.35-.63-.63-.11-.13-.21-.23-.32-.32-.07-.07-.14-.14-.21-.21-.07-.17-.18-.28-.32-.32-.12-.13-.28-.27-.42-.42-.15-.05-.28-.16-.32-.32-.14-.06-.26-.17-.32-.32-.24-.16-.46-.39-.63-.63l-.63-.42c-.14-.14-.28-.28-.42-.42-.25-.16-.46-.39-.63-.63l-.53-.32c-.07-.07-.14-.14-.21-.21-.19-.07-.33-.25-.42-.42-.22-.16-.4-.26-.53-.32-.14-.11-.28-.21-.42-.32-.18-.21-.39-.38-.63-.53-.15-.1-.28-.22-.42-.32-.28-.13-.53-.31-.74-.53-.06-.04-.14-.07-.21-.11-.19-.19-.4-.37-.63-.53-.03-.02-.08.02-.11,0-.13-.21-.43-.46-.53-.42-.1-.08-.22-.13-.32-.21-.19-.16-.4-.33-.63-.42-.17-.12-.36-.21-.53-.32-.07-.12-.18-.23-.32-.32-.21-.07-.39-.17-.53-.32-.22-.07-.43-.17-.63-.32-.3-.24-.65-.45-1.05-.63-.04-.03-.07-.07-.11-.11-.16-.08-.32-.18-.42-.32-.18.03-.39-.07-.53-.21-.14-.07-.28-.15-.42-.21-.21-.17-.45-.31-.74-.42-.03-.01-.08.01-.11,0-.22-.22-.51-.36-.84-.42-.07-.03-.14-.07-.21-.11-.09-.13-.23-.23-.42-.32l-.84-.32c-.1-.03-.21-.07-.32-.11-.12-.13-.26-.23-.42-.32l-.84-.21s-.07,0-.11,0c-.15-.17-.36-.28-.63-.32l-.32-.21c-.81-.31-1.62-.52-2.42-.63-.07-.02-.14-.08-.21-.11-.22-.03-.4-.1-.53-.21-.25-.04-.5-.08-.74-.11-.84-.01-1.69-.08-2.53-.21-.14.08-.38.09-.53,0-.54.06-1.16.05-1.69-.11-.08.08-.28,0-.32-.11-.85.07-1.66,0-2.42-.21-.03.09-.06.09-.11,0-.3-.09-.58-.23-.84-.42-.15-.1-.28-.21-.42-.32-.2-.13-.34-.27-.42-.42-.24-.13-.48-.3-.74-.53-.07-.07-.14-.14-.21-.21l-.53-.42s-.08.02-.11,0c-.32-.28-.67-.53-1.05-.74-.03-.01-.08.01-.11,0-.15-.16-.33-.31-.53-.42-.03-.01-.08.01-.11,0-.12-.15-.29-.26-.53-.32-.08-.04-.13-.06-.21-.11-.18-.15-.39-.25-.63-.32l-.95-.53s-.07.01-.11,0c-.14-.12-.28-.22-.42-.32-.17-.04-.31-.11-.42-.21-.16,0-.32-.09-.42-.21-.18,0-.41-.07-.53-.21-.09.06-.16-.01-.21-.11-.15-.03-.34-.07-.42-.21-.2,0-.39-.08-.53-.21-.28-.02-.56-.09-.84-.21-.03,0-.07,0-.11,0-.32-.23-.67-.41-1.05-.53-.48-.06-1.03-.15-1.48-.32-.95-.3-1.74-.03-2.64.42-.08.17-.18.31-.32.42.06.08,0,.2-.11.21-.02.21-.09.38-.21.53-.08.49-.08.98,0,1.48.13.04.17.21.11.32.11.12.22.36.21.53.12.22.23.46.32.74l.32.63c.07.1.14.22.21.32.03.07.1.21.21.42.19.24.35.49.53.74.15.13.26.31.32.53l.42.53.74.84c.1.14.21.28.32.42.18.12.32.3.42.53.03.04.07.07.11.11l.32.53.32.42c.2.13.4.28.42.53.03.04.08.07.11.11.07.16.17.3.32.42.21.25.42.52.53.84.03.04.07.07.11.11.2.16.34.37.42.63.03.04.07.07.11.11.14.16.25.34.32.53.17.23.27.39.42.63.2.19.34.44.42.74.13.13.2.27.21.42.11.1.18.24.21.42l.21.42c.15.09.21.24.21.42.03.07.07.14.11.21l.32.74c.14.3.28.61.32.95.11-.02.14.11.11.21.15.16.23.41.21.63.09.19.16.4.21.63.13.05.16.19.11.32.06.22.17.39.32.53.02.09-.02.22,0,.32l.21.63c.07.15.1.29.11.42.11.21.18.46.21.74.15.14.22.35.21.63.05.13.14.34.21.53.03.17.07.35.11.53.09.18.16.39.21.63.14.01.16.19.11.32.16.29.27.61.32.95.09.11.16.25.21.42.07.21.15.41.21.63.05.27.16.48.32.63.07.22.12.5.21.74l.21.53.32.74.21.53.21.32.32.63c.14.08.2.26.21.42.03.04.08.07.11.11l.21.42.42.63c.04.07.07.14.11.21.21.22.39.46.53.74l.32.53c.24.13.41.31.53.53.72.77,1.48,1.36,2,2.32l.32.74c.17.58.17,1.23,0,1.79.08.06.06.13,0,.21-.04.31-.11.6-.21.84-.07.37-.18.72-.32,1.05,0,.39-.16.8-.32,1.16-.02.06.01.14,0,.21-.18.26-.32.54-.42.84.06.09,0,.2-.11.21-.07.44-.23.86-.42,1.26,0,.03,0,.07,0,.11-.12.19-.23.4-.32.63-.02.1.01.22,0,.32-.13.23-.2.48-.21.74,0,.07,0,.14,0,.21-.18.23-.22.45-.21.74,0,.03,0,.07,0,.11-.12.29-.22.57-.32.84-.01.47-.08.93-.21,1.37.06.27.03.61-.11.84-.09.45-.16.91-.21,1.37.09.02.09.06,0,.11-.03.09-.07.09-.11,0-.15.03-.1-.26-.1-.24,0,1.69-.01,3.39,0,5.08h.11s.09,0,.09,0c.05.53.13,1.06.23,1.59.03.31.06.63.11.95.09.02.09.06,0,.11.12.41.19.83.21,1.26.09.26.19.54.32.84,0,.03,0,.07,0,.11-.03.28,0,.56.11.84.07.16.16.38.11.53.09.23.16.48.21.74.1.16.17.37.21.63l.21.53c.02.2.09.37.21.53l.32.95c.12.18.19.35.21.53.08.17.18.31.32.42.02.05-.02.16,0,.21.12.14.19.32.21.53.15.08.2.26.21.42.02.04.08.07.11.11.23.34.44.69.63,1.05.07.09.31.31.42.42.27.19.51.4.74.63l.63.42c.36.1.68.07.95-.11.03-.29.06-.57.11-.84.05-.47.12-.93.21-1.37.03-.61.1-1.2.21-1.79-.05-.44-.02-.86.11-1.26-.06-.26.07-.6.21-.84-.07-.53-.04-1.1.11-1.69,0-.03,0-.07,0-.11.13-.23.27-.65.42-1.26.05-.65.25-1.3.53-1.9,0-.03,0-.07,0-.11.12-.17.23-.34.32-.53-.02-.18.05-.36.21-.53.07-.24.18-.46.32-.63.14-.3.3-.43.42-.63.1-.12.21-.23.32-.32.04-.17.16-.33.32-.42.05-.17.17-.32.32-.42.13-.24.32-.47.53-.63-.02-.06.01-.14.11-.21.08-.12.19-.26.32-.32.03-.21.16-.4.32-.53.04-.07.07-.14.11-.21.31-.44.56-.48.74-.11.03.04.08.07.11.11.17.29.26.62.32.95l.53,1.69s.09.07.11.11l.32.84.21.42c.08.2.14.3.21.53.14.26.24.55.32.84.08.16.19.3.32.42.05.14.06.28.11.42.11.31.25.6.42.84.01.03,0,.07,0,.11l.32.74c.07.1.1.21.11.32.11.1.18.24.21.42l.21.42.21.32c.06.13.08.25.11.32.13.05.2.19.21.42.17.13.3.31.32.53.04.08.07.15.11.21.16.14.28.32.32.53.15.28.28.56.42.84.17.16.27.37.32.63l.32.42c.07.14.15.28.21.42l.32.53c.16.32.36.63.53.95.02.15.09.29.21.42.19.23.33.47.42.74.11.07.22.19.21.32.11.09.18.23.21.42l.63.95.53.84c.03.07.07.14.11.21.16.14.26.32.32.53.04.05.14.14.21.21.14.17.25.34.32.53.07.11.14.21.21.32.17.13.27.32.32.53.17.26.44.57.63.84.24.23.41.53.53.84.03.04.07.07.11.11.18.2.32.41.42.63.22.28.46.52.63.84.18.06.28.25.21.42.07.15.14.22.21.21.09.03.09.06,0,.11.88.68.26,1.39-.37.42l-.27-.11c-.13.01-.26-.09-.32-.21-.12-.02-.25-.09-.32-.21-.15-.15-.26-.22-.32-.21-.23-.18-.56-.39-.74-.53-.18-.24-.39-.45-.63-.63-.21-.09-.39-.23-.53-.42-.18-.15-.36-.37-.53-.53-.97-.85-1.93-1.74-2.74-2.74-.25-.25-.49-.49-.74-.74l-.63-.84c-.15-.02-.27-.17-.32-.32-.03-.04-.07-.07-.11-.11l-.21-.42c-.18-.12-.33-.32-.42-.53-.18-.14-.34-.32-.42-.53-.18-.07-.29-.24-.32-.42-.08-.11-.13-.18-.21-.32-.48-.59-.79-1.29-1.05-2-.33-.37-.5-.89-.63-1.37-.25-.27-.46-.59-.53-.95-.12-.09-.19-.23-.21-.42-.17-.18-.28-.39-.32-.63-.25-.23-.38-.62-.42-.95-.11-.1-.18-.24-.21-.42-.13.09-.26.18-.42.21-.02.38-.06.8-.21,1.16.09.03.09.06,0,.11-.06.51-.17,1-.32,1.48.01.49-.07,1.01-.21,1.48.09.07.07.22,0,.32-.04.41-.11.8-.21,1.16.04.44-.01.96-.21,1.37.09.03.09.06,0,.11-.03.45-.14.87-.32,1.26.06.12,0,.35-.11.42-.01.2-.08.41-.21.63-.19.15-.39.51-.42.63-.32.38-.41.47-.84.74-.16.17-.37.28-.63.32-.04.11-.14.18-.32.21-.22.13-.6.28-.84.21-.51.18-1.28.19-1.79,0-.23-.03-.48-.06-.74-.11-.29-.12-.57-.27-.84-.42-.24-.18-.49-.35-.74-.53-.11-.07-.21-.14-.32-.21l-.84-.95c-.17-.2-.27-.3-.32-.32-.16-.07-.15-.15-.21-.21-.11-.22-.25-.4-.42-.53-.07-.11-.15-.21-.21-.32-.12-.2-.26-.37-.42-.53-.07-.14-.14-.28-.21-.42-.21-.25-.39-.54-.53-.84-.07-.11-.13-.21-.21-.32-.09-.21-.16-.42-.21-.63l-.32-.42-.21-.63c-.17-.09-.24-.34-.21-.53-.16-.13-.19-.33-.21-.53-.14-.1-.21-.28-.21-.53-.12,0-.15-.11-.11-.21-.21-.35-.3-.86-.32-1.26-.16-.52-.3-.88-.42-1.05-.1-.22-.16-.51-.11-.74-.16-.37-.22-.76-.21-1.16-.13-.18-.27-.51-.21-.74-.1-.11-.07-.3,0-.42-.18-.7-.28-1.44-.32-2.21-.12-.07-.13-.15,0-.21l-.21-1.26c-.02-.26-.1-.5-.11-.74.05-.17.12-.2.21-.11l.12-.08v-2.31c0,.09-.03.05-.12-.14-.07.13-.14.1-.21-.11.01-.32.07-.63.11-.95l.21-1.26c.02-.78.1-1.58.32-2.32-.05-.27-.02-.59.11-.84-.02-.39.05-.8.21-1.16-.08-.07,0-.27.11-.32.04-.22.07-.43.11-.63-.06-.09,0-.2.11-.21-.04-.33.11-.71.32-.95.08-.78.27-1.58.53-2.32-.05-.15-.02-.33.11-.42-.04-.35.04-.75.21-1.05-.08-.11,0-.24.11-.32-.07-.19-.05-.47.11-.63.02-.09-.02-.23,0-.32.12-.12.23-.26.32-.42.07-.19.16-.42.32-.53.11-.45.15-.92-.21-1.26-.03-.07-.07-.14-.11-.21l-1.48-1.58c-.07-.11-.12-.14-.21-.32-.12-.2-.26-.37-.42-.53-.01-.03.01-.08,0-.11-.13-.2-.27-.38-.42-.53-.04-.06-.07-.14-.11-.21l-.21-.42-.63-1.05c-.07-.11-.14-.21-.21-.32-.09-.21-.16-.42-.21-.63-.08-.16-.19-.31-.32-.42-.15-.28-.28-.56-.42-.84-.18-.34-.32-.69-.42-1.05-.13-.11-.2-.29-.21-.53-.11-.02-.12-.11-.11-.21-.18-.23-.3-.55-.32-.84-.13-.28-.27-.56-.42-.84-.3-.6-.49-1.25-.63-1.9-.09-.17-.2-.35-.32-.53-.02-.09.02-.23,0-.32-.14-.17-.21-.39-.21-.63-.23-.34-.37-.73-.42-1.16-.11-.07-.15-.18-.11-.32-.14-.18-.22-.4-.21-.63-.21-.39-.39-.82-.42-1.26-.12-.07-.15-.18-.11-.32-.17-.28-.34-.63-.32-.95-.22-.36-.3-.94-.32-1.37-.13-.16-.2-.37-.21-.63-.12-.02-.15-.1-.11-.21-.11-.23-.25-.44-.42-.63-.01-.03,0-.07,0-.11-.03-.23-.13-.48-.32-.63-.03-.07-.07-.14-.11-.21l-.42-.63c-.16-.3-.35-.56-.53-.84-.12-.2-.26-.37-.42-.53-.11-.17-.22-.38-.32-.53-.14-.11-.25-.25-.32-.42-.21-.28-.42-.57-.63-.84l-.32-.53-.63-.63c-.07-.1-.14-.21-.21-.32-.22-.21-.39-.47-.53-.74-.16-.21-.36-.43-.53-.63-.14-.11-.25-.25-.32-.42l-.74-.95c-.15-.11-.25-.25-.32-.42-.02-.03-.07-.07-.11-.11-.03-.17-.1-.35-.21-.53-.18-.1-.32-.27-.42-.53-.12-.17-.19-.35-.21-.53l-.42-.53c-.17-.35-.27-.7-.32-1.05-.2-.22-.31-.5-.32-.84-.11-.06-.18-.2-.21-.42,0-.04,0-.07,0-.11-.11-.1-.14-.23,0-.32l-.11-.03c.04-.26,0-.49-.1-.71,0-.38-.02-.78,0-1.16.06-.21.13-.39.21-.53-.14-.12-.12-.29,0-.42-.04-.11,0-.25.11-.42l.32-.74c.04-.21.11-.35.21-.42.02-.06-.02-.16,0-.21.13-.11.24-.25.32-.42.03-.07.07-.14.11-.21.19-.23.4-.44.63-.63.06-.07.08-.16.21-.32.05.01.16-.06.32-.21.1-.17.33-.28.53-.32.12-.09.22-.19.32-.32.11-.06.21-.16.32-.21.21.02.42-.01.63-.11.07,0,.14,0,.21,0,.15-.16.36-.27.63-.32.11,0,.21,0,.32,0Z" style="fill: #00608b;"/>
  <path d="M45.68,19.55c.23.09.53.37.74.53.22.06.47.2.53.42.3.1.54.33.63.63.07.07.13.11.21.21.05.09.12.27.21.53.09.17.13.21.21.42.32.33.33.95.21,1.37.08.11.1.33,0,.42.04.2,0,.41-.11.63,0,.03,0,.07,0,.11-.12.13-.22.27-.32.42-.05.22-.16.4-.32.53-.13.29-.34.53-.63.74-.18.34-.47.11-.53-.21-.07-.09-.14-.21-.11-.32-.14-.08-.18-.26-.21-.42-.12-.07-.19-.21-.21-.42-.08-.04-.14-.12-.11-.21-.13-.1-.22-.26-.21-.42-.2-.3-.37-.61-.53-.95l-.21-.63c-.2-.12-.37-.3-.42-.53-.23-.08-.41-.31-.53-.53-.1-.11-.21-.21-.32-.32-.31-.37-.59-.75-.84-1.16-.12-.27-.19-.37-.21-.32-.1-.02-.32-.22-.32-.32.15-.09.41-.23.53-.11.16-.11.33-.19.53-.21.06-.02.17-.11.21-.11.67,0,1.35.04,2.02.09l.09.12Z" style="fill: #00608c;"/>
  <path d="M4.15,105.77l.84.11c1.62,0,2.81.83,3.6,2.25l6.18,14.37.49.88,6.78-15.25c.77-1.39,1.9-2.18,3.5-2.35l.84.11c1.87-.01,4.12.66,4.32,2.85.01,5.99-.02,11.96-.11,17.92h-4.32c-.07-5.62-.07-11.24,0-16.87-.06-.43-.13-.53-.21-.32-1.97,5.32-4.86,10.59-7.08,15.84-1.05,2.13-5.34,2.16-6.83.66-2.98-5.24-4.98-11.06-7.59-16.5l-.12.02c-.02,5.62-.05,11.34-.1,17.16-1.41.05-2.85.05-4.32,0-.05-5.9-.05-11.84,0-17.81-.2-2.22,2.34-2.95,4.11-3.06Z" style="fill: #00608b;"/>
  <path d="M97.22,106.3c2.89.16,5.93,1.39,6.22,4.64.03,3.72.03,7.45,0,11.17-.14,1.86-.92,3-2.63,3.74,1.37,1.22,2.68,2.59,4.11,3.74,0,.05-.02.09-.03.09-1.62.09-3.3.1-4.92.01-.13-.05-.26-.12-.37-.21l-3.11-2.85c-.2-.08-.43-.09-.63,0-.84,0-1.68.09-2.53.11-1.9.06-3.8.06-5.69,0-2.82-.12-6.03-1.3-6.22-4.53-.21-3.82-.19-7.67,0-11.49.17-3.1,3.29-4.27,6.01-4.53,3.24-.06,6.51-.03,9.8.11ZM88.9,109.25c-1.22.09-2.42.57-2.72,1.87.17,3.32-.31,7.03-.03,10.31.15,1.77,1.36,2.28,2.96,2.37h4.22l-3.48-3.27h5.06l3.12,2.83c.79-.32,1.04-.89,1.2-1.68.01-.06.17-.21.11-.36-.33-3.07.46-7.15-.11-10.08-.27-1.36-1.32-1.9-2.64-2h-7.7Z" style="fill: #e58e00;"/>
  <path d="M55.38,112.42c.09,1.21.08,2.57,0,3.79.08,2.42.08,4.85,0,7.27.03,1.63.06,3.21.11,4.74-.2,3.3-3.4,4.43-6.27,4.64h-14.71c-.09-.93-.13-1.93,0-2.85,4.65-.03,9.32-.07,14.02-.11,1.03-.14,2.12-.33,2.42-1.48.1-.64.1-1.28,0-1.9-3.16.07-6.33.03-9.49,0-2.67-.07-6.55-.74-7.06-3.9-.12-.73-.07-1.48,0-2.21v-7.91c1.45-.04,2.9-.04,4.32,0l.08,1.71c-.14,2.74-.14,5.47.02,8.2.24,1.07.78,1.16,1.75,1.43l10.37.04.11-11.49c1.44-.02,2.88-.02,4.32,0Z" style="fill: #00608b;"/>
  <path d="M78.67,106.2c.12.95.12,2,0,2.95h-12.49c-1.29.27-2.43-.1-2.79,1.48-.09.84-.07,1.69,0,2.53.22,1.23.74,1.7,2,1.79.19.03.36.07.53.11,1.87-.08,3.73-.08,5.59,0,2.25.07,6.71.88,7.06,3.69-.07,1.14-.09,2.44,0,3.58-.21,2.98-3.74,4.26-6.32,4.43-4.35-.03-8.78-.06-13.28-.11-.11-.91-.12-1.95,0-2.85,4.15-.06,8.33-.09,12.54-.11,1.11-.07,2.21-.38,2.53-1.58.09-.94.1-1.91,0-2.85-.36-1.23-1.65-1.34-2.74-1.48-1.76-.03-3.52-.07-5.27-.11-.19.1-.43.08-.63,0-2.31-.1-6.23-1.11-6.54-3.9.06-1.07.06-2.12,0-3.16.29-3.41,3.56-4.3,6.48-4.43,4.39-.2,8.93.16,13.34,0Z" style="fill: #e58e00;"/>
  <path d="M113.46,126.75c-2.29-.13-5.78-.79-6.87-3.09-.07-.15-.4-1.08-.4-1.18v-16.29h4.43v15.76c0,.47.41,1.05.81,1.3.57.36,1.18.4,1.83.44,4.19,0,8.37.03,12.54.11.04.14.04,2.71,0,2.85-4.1.09-8.21.13-12.33.11Z" style="fill: #e58e00;"/>
  <path d="M130.85,120.43c.2-.1.44-.1.63,0,3.97.38,3.87,6.39-.15,6.54-4.38.17-4.63-6.28-.48-6.54ZM130.85,126.22s.11.12.26.12.23-.11.26-.12c.73-.11.82-.15,1.37-.63,2.13-1.85.26-5.28-2.48-4.33-2.34.81-2.22,4.54.58,4.96Z" style="fill: #e58f00;"/>
  <path d="M132.64,122.54c.06.21.05.42,0,.63-.18.61-.31.51-.85.8-.04.23.68,1.13.85,1.42.11.25-.44.17-.63.11-.27-.19-.8-1.46-.97-1.56-.07-.04-.43-.05-.51-.02-.03.53-.07,1.05-.11,1.58-.16.06-.4.12-.53,0-.04-1.21-.04-2.44,0-3.69.9.08,2.32-.34,2.74.74ZM130.53,123.38c1.99.27,1.96-1.28,0-1.05-.18.21-.18.82,0,1.05Z" style="fill: #e58f00;"/>
</svg>