<?xml version="1.0" encoding="UTF-8"?>
<svg xmlns="http://www.w3.org/2000/svg" viewBox="0 0 137.49 72.46">
  <path d="M137.49,33.3v5.9c-3.39,15.15-18.68,23.07-32.22,27.6-.73-.88.96-2.66,1.88-3.22l.57-.78c18.76-6.5,38.72-25.78,17.64-43.12l-.49-1.12c-.72-.69-.97-3.01.27-2.95,5.39,4.08,11.5,10.63,12.35,17.69Z" style="fill: #484c88;"/>
  <path d="M2.7,37.06l.56.34c.14,1.61.42,3.22.9,4.76l-.38.53c.24.65.09.7-.54.72-.71.02-2.56-3.18-2.95-3.93-.08-.04-.17-.21-.27-.27v-5.09c1.1-.4,2.42,1.87,2.69,2.95Z" style="fill: #9397c1;"/>
  <path d="M2.96,32.5l.46.46-.21,3.69-.52.4L.01,34.11c.02-.26-.03-.54,0-.8.12-.94.77-2.31,1.07-3.22,1.05-.52,1.73,1.53,1.88,2.41Z" style="fill: #999dc5;"/>
  <path d="M73.58.07c.91.15,1.48,2.29.92,2.74l-3.6-.06-1.11.52c-21.07.48-45.21,3.98-60.82,19.34l-1.16.51c-.87.86-1.72-1.39-1.34-2.14C21.13,4.36,52.4-.69,73.58.07Z" style="fill: #adb1d4;"/>
  <path d="M107.69,6.5c.76.51.62,2.08.54,2.95-1.37.33-2.9-.23-3.76-1.34-.82-.31-.82-2.42,0-2.68,1.1.36,2.13.67,3.22,1.07Z" style="fill: #6f73a6;"/>
  <path d="M110.91,7.84c.78.29.57,2.25-.27,2.41-.44.69-2.52.02-2.42-.8-.8-.82-.51-1.91-.54-2.95,1.14.41,2.13.89,3.22,1.34Z" style="fill: #686ca1;"/>
  <path d="M98.82,3.82c.82.28,1.07,2.3.27,2.68-1.02.56-2.58.16-3.22-.8-.32-.67-.98-2.46,0-2.68,1.02.23,1.96.55,2.95.8Z" style="fill: #7f83b1;"/>
  <path d="M4.04,29.55c.64.53-.28,2.88-1.07,2.95-1.05-.44-.95-1.87-1.88-2.41.49-1.46.66-1.85,1.34-3.22l.37-.04c.48.85.89,1.76,1.24,2.72Z" style="fill: #9ea2c8;"/>
  <path d="M76.27.34c.87.15,1.53,2.15.81,2.68-1.56.75-4.69.61-6.18-.27h3.49s-.81-2.68-.81-2.68c.82.03,1.76.22,2.69.27Z" style="fill: #a9add1;"/>
  <path d="M123.53,14.54c.4.49.39,2.44-.54,2.68-.68.52-2.69-1.11-2.42-1.88-.89-.68-.69-2.5.54-2.41.91.57,1.55,1,2.42,1.61Z" style="fill: #4f538e;"/>
  <path d="M104.46,5.43v2.68c-1.01.48-2.11.16-2.69-.8-.82-.42-1.25-2.72,0-2.68.92.27,1.77.51,2.69.8Z" style="fill: #7478aa;"/>
  <path d="M113.59,8.92c.44.67.85,2.26,0,2.68-.67.59-2.95-.46-2.95-1.34l.27-2.41c.88.36,1.78.66,2.69,1.07Z" style="fill: #62669c;"/>
  <path d="M95.87,3.02c-.21.88.69,2,0,2.68-.77.62-1.98.35-2.42-.54-.84-.26-1.32-2.22-.54-2.68.98.19,1.97.31,2.95.54Z" style="fill: #8488b6;"/>
  <path d="M101.78,4.63c-.59.83.15,1.75,0,2.68-.93.54-2.19.13-2.69-.8l-.27-2.68c1.02.26,1.95.51,2.95.8Z" style="fill: #797dad;"/>
  <path d="M116.28,10.26c.45.45.51,2.57-.27,2.68-.65.58-2.53-.51-2.42-1.34.08-.95-.46-1.77,0-2.68.95.43,1.77.88,2.69,1.34Z" style="fill: #5d6198;"/>
  <path d="M81.91.88c1.19,1.07,1.04,2.91-1.07,2.41-.72.75-2.91.6-3.49-.27.15-.53.66-.71,1.55-.54-.29-.92-.18-1.55.33-1.87.91.07,1.84.18,2.69.27Z" style="fill: #9fa3c9;"/>
  <path d="M88.62,1.68c.84.13,1.06,2.34.27,2.68-.88.67-2.59.36-3.22-.54.17-.72.09-1.47-.23-2.24l.5-.44c.88.12,1.81.4,2.69.54Z" style="fill: #9296c0;"/>
  <path d="M121.11,12.94c-.61.63-.56,1.6-.54,2.41-.53.61-2.67-.55-2.42-1.34-.74-.47-.61-2.46.27-2.68,1,.55,1.74,1.02,2.69,1.61Z" style="fill: #545892;"/>
  <path d="M79.22.61l.27,2.41h-2.15c-.09.23-.18.23-.27,0l-.81-2.68c1.02.06,2,.19,2.95.27Z" style="fill: #a4a8cd;"/>
  <path d="M5.11,27.14c.6.53-.27,2.52-1.07,2.41-1.11-.11-1.22-1.81-1.61-2.68.43-.85.6-1.12,1.07-1.88l.32-.2c.63.52,1.06,1.3,1.29,2.35Z" style="fill: #a1a5cb;"/>
  <path d="M118.43,11.33l-.27,2.68c-.83.43-2.02-.13-2.15-1.07.04-.89-.19-1.87.27-2.68.75.38,1.36.64,2.15,1.07Z" style="fill: #595d95;"/>
  <path d="M6.46,25c.6.58-.56,2.26-1.34,2.14-1.11-.01-.78-1.58-1.61-2.14.47-.76.76-1.37,1.34-2.14.3-.23.6-.35.78-.04l.83,2.18Z" style="fill: #a5a9ce;"/>
  <path d="M92.92,2.48l.54,2.68c-.79.65-2.2.36-2.69-.54-.26-.71-.44-1.47-.53-2.27l.53-.41c.72.13,1.45.4,2.15.54Z" style="fill: #898db9;"/>
  <path d="M7.8,23.12c.65.51-.61,2.18-1.34,1.88-1.23,0-.65-1.73-1.61-2.14.5-.67,1.06-1.25,1.61-1.88.72.57.46,1.76,1.34,2.14Z" style="fill: #a9add1;"/>
  <path d="M90.77,1.95c-.11.86.71,1.99,0,2.68-.54.69-1.56.56-1.88-.27l-.27-2.68c.7.11,1.44.14,2.15.27Z" style="fill: #8d91bc;"/>
  <path d="M83.79.88c1.24.55,1.79,3.2-.27,2.68-.46.75-2.4.57-2.69-.27,2.06.2.92-1.07,1.07-2.41.61.06,1.28-.07,1.88,0Z" style="fill: #9a9ec6;"/>
  <path d="M85.94,1.14c-.02.88,1.07,2.72-.27,2.68-.36.75-2,.55-2.15-.27,1.63.32.44-1.67.27-2.68.7.08,1.45.17,2.15.27Z" style="fill: #969ac3;"/>
  <path d="M125.14,15.62c-.48.9-.21,1.97-.27,2.95-.82.34-1.98-.44-1.88-1.34l.32-2.5.22-.18c.52.36,1.03.63,1.61,1.07Z" style="fill: #4a4e8b;"/>
  <path d="M9.95,51.53l1.18.39c3.72,3.41,8.14,5.91,12.58,8.26l.74,1c-.11.2-.25.47-.44.47-1.52.02-6.49-2.44-8.02-3.25-3.28-1.74-6.38-3.69-8.99-6.33-1.94-1.59-4.06-4.92-5.1-7.24l.55-.22,6.58,6.44.93.47Z" style="fill: #8b8fbb;"/>
  <path d="M3.77,42.68l.69.26c1.34,2.92,3.33,5.51,5.52,7.84l-.02.74c-.89.62-1.78-1.1-2.54-1.35l-5.51-5.35c-.75-1.68-1.47-3.51-1.61-5.36,1.16.51,1.67,1.97,2.54,2.95.2.22.74.88.95.26Z" style="fill: #8f93bd;"/>
  <path d="M34.11,64.66c1.87-.28,4.17.4,5.64,1.61,1.32.58.39,1.2-.74,1.08-2.73-.14-5.44-.5-8.12-1.08-3.67-1.28-7.46-2.38-10.74-4.56l.4-.23c4.42,1.48,9,2.79,13.56,3.18Z" style="fill: #868ab7;"/>
  <path d="M30.89,66.27c2.81-.24,5.64.62,8.46.53.67-.02.87.18.4-.53,2.15-.31,4.6.18,6.44,1.34.72.53.05.99-.72,1.07-2.54.07-5.07-.01-7.61-.26-2.61-.7-4.44-1.26-6.98-2.14Z" style="fill: #8387b5;"/>
  <path d="M24.45,61.17c.02-.13.05-.25.12-.34.21-.28,4.01,1.28,4.59,1.6l.13.62c.54.24.89.72.29.98-1.51.65-14.91-4.84-16.67-6.88-2.22-1.3-4.24-3.09-5.91-5.09,3.57,2.94,13.1,8.98,17.45,9.11Z" style="fill: #898db9;"/>
  <path d="M12.9,57.16c4.36,2.54,11.1,5.4,16.04,6.37.73.14.74.13.34-.48,1.73-.25,3.58.39,4.83,1.61-1.09.65-2.65.13-3.81-.08-2.99-.55-7.3-1.79-10.15-2.86-2.45-.92-5.29-2.83-7.25-4.56Z" style="fill: #898db9;"/>
  <path d="M51.03,68.41l.07.63c-2,.78-4.17,1.1-6.51.98-2.35-.46-4.45-1.01-6.71-1.61,2.33-.55,4.76-.12,7.13-.25.5-.03,1.01.06,1.19-.55,1.6-.51,3.47-.19,4.83.8Z" style="fill: #8084b3;"/>
  <path d="M77.61,69.48c.08,1.36-2.5,2.53-3.76,2.95-1.78.07-3.59,0-5.37,0l-.18-.6c1.29-.9,2.69-1.6,4.21-2.08.57-.19,1.19-.28,1.88-.27.54-.85,2.62-.76,3.22,0Z" style="fill: #6c70a3;"/>
  <path d="M69.56,69.75c.93-.23,2.01-.2,2.95,0-.87,1.41-3.01,1.4-4.03,2.68-1.69,0-3.41.07-5.1,0l-.25-.58c1.4-1.05,2.83-1.75,4.28-2.1.69-.21,1.48-.21,2.15,0Z" style="fill: #7175a7;"/>
  <path d="M59.62,69.48c.28.75-.28,1.25-1.68,1.5l-3.15.65c-1.84-.2-3.56-.52-5.37-.8l.33-.69c1.92-.38,3.69-.78,5.31-1.18,1.01-.73,3.71-.35,4.56.54Z" style="fill: #7b7fae;"/>
  <path d="M55.06,68.95c.13.65-.29.59-.74.72-1.6.49-3.34.51-4.9,1.15-1.65-.26-3.19-.48-4.83-.8.19-.63.7-.51,1.19-.55,1.6-.13,4.02.07,5.25-1.06,1.28-.61,2.93-.38,4.03.54Z" style="fill: #7e82b1;"/>
  <path d="M82.18,68.95c.69,1-1.04,1.9-1.93,2.36l-1.29.59c-1.59.12-3.46.47-5.1.54l3.76-2.95c1.11-.91,3.3-1.22,4.56-.54Z" style="fill: #676ba0;"/>
  <path d="M69.56,69.48c.23.08.23.17,0,.27-.71.02-1.43-.02-2.15,0l-.25.3c-2.89.35-5.59,1.22-8.34,2.11-1.25-.09-2.74-.39-4.03-.54,1.15-1.32,3.76-.73,4.83-2.14.35-.22.73-.46,1.16-.49,1.46-.09,7.38-.25,8.2.13.2.09.39.22.58.36Z" style="fill: #777bac;"/>
  <path d="M96.68,66.53c.13.09.25.18.34.3.59.74-1.81,2.53-2.49,2.92-1.53.32-3.03.54-4.56.8l-.36-.52c.74-1.28,2.05-2.02,3.31-2.7,1.08-.96,2.38-1.23,3.76-.8Z" style="fill: #585c94;"/>
  <path d="M92.92,67.34c-.72,1.34-2.42,1.8-2.95,3.22-1.42.24-2.85.61-4.3.8-.51-.27-.45-.61-.08-1.01l2.77-2.2c1.38-.96,2.94-1.23,4.56-.8Z" style="fill: #5c6098;"/>
  <path d="M67.41,69.75c.13.62-.31.58-.7.76-1.12.52-2.65.79-3.33,1.92-1.43-.06-3.1-.16-4.56-.27.18-.47.59-.58,1-.74,3.13-1.26,4.18-1.58,7.59-1.67Z" style="fill: #7478aa;"/>
  <path d="M100.97,65.46c.55,1.12-1.61,2.88-2.69,3.48-1.25.31-2.5.54-3.76.8.24-1.35,2.21-1.76,2.15-3.22,1.1-1.07,2.81-1.48,4.3-1.07Z" style="fill: #535791;"/>
  <path d="M107.15,63.59l-1.88,3.22c-1.18.4-2.29.72-3.49,1.07-.73-.87.95-2.69,1.88-3.22.29-.95,2.71-1.66,3.49-1.07Z" style="fill: #4c508b;"/>
  <path d="M85.4,68.68c.12.08.23.16.29.27.45.79-2.51,2.34-3.24,2.68-1.23.13-2.29.17-3.49.27.68-1.38,2.73-1.52,3.22-2.95.53-.87,2.53-1,3.22-.27Z" style="fill: #63679d;"/>
  <path d="M103.66,64.66l-1.88,3.22c-1.17.34-2.29.77-3.49,1.07l2.69-3.48c.66-.94,1.6-1.23,2.69-.8Z" style="fill: #4f538e;"/>
  <path d="M88.35,68.14c-.06,1.58-2.38,1.76-2.69,3.22-1.06.14-2.16.16-3.22.27.39-1.32,2.59-1.57,2.95-2.95.47-.87,2.23-1.24,2.95-.54Z" style="fill: #60649b;"/>
  <path d="M70.9,2.75c1.89.03,4.2.15,6.18.27.09,0,.18,0,.27,0,1.06.07,2.36.17,3.49.27.8.07,1.83.17,2.69.27.64.07,1.46.18,2.15.27,1.04.14,2.17.37,3.22.54.62.1,1.28.16,1.88.27.86.15,1.81.36,2.69.54.79.16,1.63.36,2.42.54,1.05.24,2.17.53,3.22.8.89.23,1.8.54,2.69.8s1.81.52,2.69.8c1.26.41,2.52.87,3.76,1.34.76.29,1.77.53,2.42.8.86.36,2.07.93,2.95,1.34.71.33,1.64.94,2.42,1.34.7.37,1.46.68,2.15,1.07.73.41,1.8.95,2.42,1.34.7.44,1.67,1.33,2.42,1.88.62.45,1.29.85,1.88,1.34,22.9,18.99,2.5,37.66-17.72,45.02-1.01.37-2.4.73-3.49,1.07-.88.28-1.8.55-2.69.8-1.41.4-2.87.74-4.3,1.07-1.25.29-2.5.56-3.76.8-1.52.3-3.03.57-4.56.8-.97.15-1.99.41-2.95.54s-2.19.16-3.22.27c-1.5.16-3.08.42-4.56.54-1.06.08-2.16-.06-3.22,0-1.64.2-3.25.2-4.83,0-3.23,0-6.74.18-9.94,0-1.4-.08-3.09-.38-4.56-.54-1.34-.14-2.69-.35-4.03-.54-1.63-.23-3.21-.51-4.83-.8-2.16-.39-4.31-.82-6.44-1.34-1.91-.47-3.76-1.03-5.64-1.61-1.64-.5-3.21-1.06-4.83-1.61-.94-.32-4.33-1.86-4.83-1.88-5.13-2.71-10.34-5.54-14.5-9.65-2.19-2.17-5.09-5.98-6.18-8.84-.56-1.47-1.01-4.05-1.07-5.63-.05-1.31.01-3.29.27-4.56.17-.85.73-2.1,1.07-2.95.29-.73.71-1.74,1.07-2.41.33-.61.94-1.56,1.34-2.14.31-.45,1.07-1.56,1.34-1.88C21.04,7.57,51.47,2.44,70.9,2.75Z" style="fill: #777bb2;"/>
  <path d="M74.39,69.48c-.4.02-1.15.24-1.88.27-.98.04-1.97-.03-2.95,0v-.27h4.83Z" style="fill: #7478aa;"/>
  <path d="M54.52,40.81c-5.56,7.87-12.88,7.62-21.77,7.62-.51.37-1.24,7.25-1.72,8.47-.16.4-.34.68-.74.87-.77.35-6.92.32-8.14.21-1.34-.12-2.05-.48-1.94-1.94l6.95-35.7c.12-.75.55-1.53,1.44-1.51,8.26.92,22.39-3,27.48,5.56l1.39,3.29,3.41-17.37c.22-1,.95-1.05,1.82-1.13,1.74-.16,5.56-.19,7.27,0,1.05.12,1.73.58,1.72,1.71-.02,2.23-1.51,5.56-1.59,7.94h8.46c.54,0,3.23.71,3.89.94,2.88,1.02,4.69,3.31,5.24,6.29.38,0,.64-6.91,2.2-7.18,6.28.39,13.88-.89,19.96.34,14.56,2.93,10.56,22.43-.45,27.44-4.75,2.16-10.03,1.54-15.11,1.67-.33.28-1.17,7.16-1.64,8.41-.15.4-.4.89-.8,1.07-.66.29-7.06.24-8.2.15-.42-.03-1.11-.05-1.4-.34-1.18-1.18,1.2-7.52,1.01-9.32h-9.26c-.19,0-.98-1.08-.9-1.46l3.38-17.51c.06-1.57-.55-1.57-1.93-1.68-2.03-.17-4.27.14-6.32,0-.45,2.45-3.2,19.68-4.18,20.35-.4.27-.85.26-1.31.3-1.06.09-7.65.12-8.2-.15-.37-.18-.75-.91-.77-1.33-.04-.96.81-4.48,1.04-5.78.11-.54.02-.63-.27-.27Z" style="fill: #fefefe;"/>
  <path d="M54.79,41.08l-.27-.27c.23-.33.14-.9.53-.8.22.47-.23.88-.27,1.07Z" style="fill: #a3a6cb;"/>
  <path d="M70.09,10.79l-1.88,9.38c2.18.1,4.41-.12,6.59,0,2.48.13,6,.35,8.19,1.47,3.35,1.71,3.35,5.01,2.9,8.28-.75,5.47-2.47,11.09-3.24,16.6l-.35.46h-7.65l3.19-16.78c1.07-6.04-6.96-3.6-10.54-4.14l-4.19,20.92h-7.79l6.98-36.18h7.79Z"/>
  <path d="M49.67,21.12c-1.76-.59-4.41-.86-6.29-.96-4.75-.25-9.71.22-14.48,0l-7.15,36.2h7.79l1.92-9.34c7.65-.25,15.16.83,20.65-5.52,5.08-5.88,6.47-17.37-2.44-20.36ZM44.4,39.42c-.77.56-3.38,1.66-4.25,1.66h-7.65l3.12-15.02c3.17.36,9.41-1.07,11.5,1.91,1.93,2.75,0,9.48-2.72,11.46Z"/>
  <path d="M34.38,39.74l2.45-12.29c6.03.08,11.45-1.11,9.02,6.99-.63,2.12-1.78,3.9-3.96,4.63-.67.22-2.75.68-3.35.68h-4.16Z" style="fill: #777bb2;"/>
  <path d="M104.88,20.16c-4.74-.24-9.66.1-14.39.13l-7.23,36.06h8.06l1.61-9.38c5.58-.22,12.14.62,17.09-2.37,4.09-2.47,7.17-7.18,7.6-11.98.84-9.32-4.35-12.05-12.74-12.47ZM108.76,35.05c-.58,1.88-1.55,3.71-3.3,4.74-.58.34-3.26,1.28-3.82,1.28h-7.38l2.68-15.01c7.57.02,15.06-1.46,11.82,8.98Z"/>
  <path d="M96.14,39.74l2.3-12.34c2.26.19,8.99-.72,9.49,2.31.47,2.84-.83,7.59-3.55,9.02-.64.33-3.43,1.02-4.08,1.02h-4.16Z" style="fill: #777bb2;"/>
</svg>