<?xml version="1.0" encoding="UTF-8"?>
<svg xmlns="http://www.w3.org/2000/svg" viewBox="0 0 1051 1025">
    <path d="M175,0c2.24.84,4.76.84,7,0h687c2.24.84,4.76.84,7,0h6c87.88,4.05,164.98,81.16,169,169v3l-1,2c.41.31.74.97,1,2v673l-1,2c.41.31.74.97,1,2v4c-4.66,87.63-82.06,164.64-170,168h-7c-1.58-.79-3.41-.8-5,0H182c-1.9-.82-4.09-.82-6,0h-8C80.95,1020.36,4.65,944.04,0,857v-5c.55-1.03.55-1.97,0-3V176c.55-1.03.55-1.97,0-3v-5C4.68,81,80.87,4.59,168,0h7Z"
          style="fill: #001e36;"/>
    <path d="M332,578v141.5c0,1.9-5.02,6.11-7.48,5.52-25.73-1.52-53.59,1.95-79.06.01-5.37-.41-8.95-.58-9.19-6.81l-.31-446.77c.2-3.57,1.01-8.52,5.49-8.51,85.36,3.52,189.5-20.7,264.27,30.83,82.07,56.56,83.07,191.66,2.61,250.05-50.14,36.39-116.86,36.16-176.33,34.17h0Z"
          style="fill: #31a7fe;"/>
    <path d="M742.79,369.29c27.18-1.3,77.32,1.86,101.89,13.52,5.21,2.47,5.82,3.92,6.35,9.65,2.08,22.55-1.67,48.2.01,71.09-3.62,11.48-14.55,2-21.38-.72-27.87-11.13-76.69-20.36-105.68-12.33-16.11,4.46-23.82,20.66-11.99,34,14.3,16.12,60.68,29.21,81.67,39.33,45.63,21.99,78.79,50.14,75.32,105.66-6.95,111.03-155.23,119.56-235.51,90.53-6.01-2.17-17.34-5.55-19.01-11.99.82-24.5-2.71-52.45-.52-76.58.3-3.27.81-7.56,5.06-6.03,35.85,20.29,86,33.8,127.22,27.3,15.6-2.46,34.91-12.65,25.97-31.43-7.81-16.41-52.92-29.62-69.87-37.13-56.68-25.1-102.63-65.83-83.04-134.39,15.98-55.94,69.67-77.92,123.51-80.49h0Z"
          style="fill: #31a7fe;"/>
    <path d="M332,495v-147c2.21-.15,4.22-.88,6.46-1.04,60-4.38,138.43-.05,133.59,79.59-4.3,70.64-86.44,72.37-140.05,68.45Z"
          style="fill: #001e36;"/>
</svg>