<?xml version="1.0" encoding="UTF-8"?>
<svg xmlns="http://www.w3.org/2000/svg" viewBox="0 0 150.02 150.02">
  <path d="M13.32.1C53.83-.03,96.21-.03,136.75.1c6.72-.23,13.47,6.43,13.18,13.18.13,40.5.13,82.88,0,123.43.34,6.6-6.09,13.07-12.59,13.18-.18.05-.38.1-.59.15H13.32c-.21-.05-.4-.1-.59-.15-4.55.05-9-3.48-11.12-7.37-.83-1.53-1.65-3.52-1.33-5.23-.08-.28-.18-.58-.29-.88V13.57l.15-.29c-.13-.13-.11-.43,0-.59C.36,6.26,6.8-.13,13.32.1Z" style="fill: #3178c5;"/>
  <path d="M134.85,85.89c-3.79-2.4-8.18-3.92-12.67-4.39-4.07-.42-11.84.01-13.58,4.57-2.71,7.09,9.52,10.71,14.15,12.87,9.71,4.54,16.17,10.1,14.88,21.87-1.8,16.39-21.18,18.17-34.16,16.3-3.58-.51-7.29-1.42-10.49-3.12v-14.57c5.47,4.58,12.67,7.02,19.85,6.59,4.35-.26,9.91-2.17,9.28-7.53s-11.18-8.76-15.56-10.8c-7.1-3.31-13.31-8.3-13.86-16.74-1.27-19.43,19.32-22.8,34.32-20.7,2.6.36,5.47,1.02,7.85,2.1v13.54Z" style="fill: #fff;"/>
  <polygon points="87.12 71.25 87.12 83.26 68.23 83.26 68.23 136.85 53.44 136.85 53.44 83.26 34.7 83.26 34.7 71.25 87.12 71.25" style="fill: #fff;"/>
</svg>