<?xml version="1.0" encoding="UTF-8"?>
<svg xmlns="http://www.w3.org/2000/svg" viewBox="0 0 143.56 143.22">
  <path d="M68.03.09c57.49-2.87,95.31,60.27,64.55,109.47-28.23,45.15-94.18,44.79-122.01-.57C-17.83,62.7,14.24,2.78,68.03.09ZM114.88,24.1c-15.51-14.39-37.92-19.88-58.53-14.84-13.06,3.19-25.39,10.88-33.95,21.2-1.06,1.27-3.42,4.05-4.07,5.4-.09.19-.14.34-.1.56.67-.42,1.29-.02,1.98,0,3.96.15,8.51-.19,12.51-.39,2.09-.1,4.61-.58,6.63-.57,2.46.02,3.67,2.93,2.07,4.73-.63.71-1.56.82-2.46.96-1.92.29-4.11.28-6.06.38l-.39.18-.05.25,23.09,68.74.38-.47,13.77-41.29-9.83-26.91-.64-.5c-1.88-.25-5.89,0-7.47-.87-2.18-1.21-1.29-5.18,1.6-5.2,3.17-.02,6.96.63,10.23.77,5.83.25,11.62.08,17.44-.2,2.09-.1,4.61-.58,6.63-.57,2.84.02,3.82,3.88,1.56,5.16-1.74.98-5.93.65-8,.91l-.46.28,23.3,68.32c0-.26.01-.52.09-.76,3.15-10.55,7.17-21.75,9.71-32.36,2.35-9.82,1.3-16.63-3.51-25.37-2.48-4.5-6.35-9.27-6.83-14.58-.62-6.84,4.25-13.14,11.35-12.96ZM104.46,126.82c.17.17,3.44-2.03,3.85-2.31,19.35-13.29,29.95-36.45,27.4-59.92-.88-8.03-3.35-15.69-6.99-22.86-.31-.05-.2.46-.2.67.27,7.33.23,14.06-2.17,21.12-7.38,21.07-14.79,42.14-21.89,63.3ZM43.43,129.29L12.74,45.9c-1.51,4.03-2.99,8.09-3.89,12.32-5.12,24.22,4.08,49.34,23.62,64.32,3.41,2.61,7.1,4.89,10.97,6.75ZM72.81,77.55l-19.13,55.62c.04.38,5.83,1.57,6.61,1.71,9.26,1.64,18.81,1.29,27.9-1.1.66-.17,4.62-1.24,4.69-1.57l-20.08-54.66Z" style="fill: #464442;"/>
</svg>