<?xml version="1.0" encoding="UTF-8"?>
<svg xmlns="http://www.w3.org/2000/svg" viewBox="0 0 132.12 136.5">
  <path d="M11.62.04l108.56-.04c6.16.15,11.42,4.82,11.93,11.01v114.25c-.62,6.51-5.46,10.88-11.93,11.24H11.93c-6.28-.19-11.46-4.93-11.93-11.24V10.9C.55,4.9,5.64.26,11.62.04ZM11.05,4.65c-3.59.53-6.28,3.28-6.55,6.94v113.09c.3,3.81,3.26,6.89,7.09,7.21h109.06c3.84-.4,6.72-3.47,6.98-7.32V11.59c-.28-3.78-3.14-6.57-6.86-6.97l-109.71.04Z" style="fill: #f02f28; isolation: isolate;"/>
  <path d="M11.05,4.65l109.71-.04c3.72.4,6.58,3.2,6.86,6.97v112.98c-.25,3.85-3.13,6.92-6.97,7.32H11.58c-3.83-.31-6.79-3.4-7.09-7.2V11.59c.27-3.66,2.96-6.41,6.55-6.94ZM33.26,16.26h-11.35l2.31,7.49,8.33-1.27c.47.77,1.35,1.51,1.82,2.25.09.14.14.22.11.41h-17.52l-.46,4.26,2.76.45.93-2.64h15.1l-4.68,5.29-5.77-3.89c-.29-.03-2.05,2.48-2.45,2.82l3.91,5.73-8.99,23.82,6.22-2.77,3.08,10.3-7.42,11.13-4.25,2.43-1.33,5.64h16.71l-1.25-4.82.04-.36,11.7-14.53,4.96,12.56-5.86,1.51-1.01,5.4.13.24h18.91c.15-.11.2-.27.26-.43.51-1.42.74-3.2,1.17-4.67l-4.94-7.51,4.73-9.46,17.32-.08,18.01-7.81.17.17-13.66,22.53-5.1,1.64-1.29,5.62h18.27l1.32-6.86,9.8-12.1.5-.4c2.28,2.05,4.45,4.24,6.64,6.39.23.22.74.37.68.78l-2.64,4.98-5.85,1.59-2.1,5.62h17.23l4.09-11.35-5.52-20.88-.07-19.99-5.53-5.42h-38.37s-1.35-5.25-1.35-5.25c.43-1.46.66-3.41,1.22-4.78.07-.18.12-.33.35-.35h37.24s.35.11.35.11l5.81,5.83.35.17v-11.82l-48.87-.05-2.32,10.89,2.32,10.89h40.4l.17.17v5.94h-48.76l-1.04-23.86-3.46,1.73,2.65-8.99-8.83,2.87-14.03.03-1.98,2.63ZM53.03,121.85h-5.71l-.17-.17v-26.4c-.16-.26-.25-.06-.29-.06h-4.21v30.55h10.37v-3.92ZM58.91,108.25v-12.97c-.16-.26-.25-.06-.29-.06h-4.32v30.55h4.61v-13.6h4.09l.17.17v13.43h4.5v-30.49c-.16-.26-.25-.06-.29-.06h-4.21v12.85l-.17.17h-4.09ZM84.39,125.77l-3.36-30.47-.15-.16h-6.7s-3.63,30.63-3.63,30.63h4.03l1.1-8.19h3.16s.81,8.19.81,8.19h4.73ZM105.48,95.22h-10.66s-.07-.09-.12-.09l-.17.15v3.86h6.11l-6.11,23.46v3.17h10.95v-3.92h-5.94s-.21-.17-.16-.26l6.09-22.85v-3.52ZM118.51,95.22l-10.14.06v30.49h10.14v-3.92h-5.36l-.17-.17v-9.51h5.3v-3.92h-5.3v-9.11h5.53v-3.92ZM13.61,125.77h7.32c1.92,0,4.29-2.47,4.52-4.35-.04-6.51.55-13.55.15-20.03-.13-2.15-.72-4.61-2.85-5.57-.41-.19-1.66-.59-2.06-.59h-7.09v30.55ZM39.43,95.22h-10.14v30.55h10.37v-3.92h-5.71l-.17-.17v-9.34l.17-.17h5.13v-3.92h-5.13l-.17-.17v-8.93h5.65v-3.92ZM91.88,95.22h-4.5v30.55h4.5v-30.55Z" style="fill: #fff;"/>
  <path d="M33.26,16.26l1.98-2.63,14.03-.03,8.83-2.87-2.65,8.99,3.46-1.73,1.04,23.86h48.76v-5.94l-.17-.17h-40.4l-2.32-10.89,2.32-10.89,48.87.05v11.82l-.35-.17-5.81-5.83-.35-.12h-37.24c-.23.02-.27.17-.35.35-.56,1.37-.79,3.33-1.22,4.78l1.35,5.25h38.37s5.53,5.41,5.53,5.41l.07,19.99,5.52,20.88-4.09,11.35h-17.23l2.1-5.62,5.85-1.59,2.64-4.98c.06-.41-.45-.55-.68-.78-2.19-2.15-4.36-4.34-6.64-6.39l-.5.4-9.8,12.1-1.32,6.86h-18.27l1.29-5.62,5.1-1.64,13.66-22.53-.17-.17-18.01,7.81-17.32.08-4.73,9.46,4.94,7.51c-.42,1.47-.66,3.25-1.17,4.67-.06.17-.11.32-.26.43h-18.91l-.13-.24,1.01-5.4,5.86-1.51-4.96-12.56-11.7,14.53-.04.36,1.25,4.82H13.61l1.33-5.64,4.25-2.43,7.42-11.13-3.08-10.3-6.22,2.77,8.99-23.82-3.91-5.73c.39-.34,2.15-2.85,2.45-2.82l5.77,3.89,4.68-5.29h-15.1l-.93,2.64-2.76-.45.46-4.26h17.52c.03-.18-.02-.27-.11-.41-.47-.74-1.34-1.47-1.82-2.25l-8.33,1.27-2.31-7.49h11.35Z"/>
  <path d="M58.91,108.25h4.09l.17-.17v-12.85h4.21s.13-.2.29.06v30.49h-4.5v-13.43l-.17-.17h-4.09v13.6h-4.61v-30.55h4.32s.13-.2.29.06v12.97Z" style="fill: #f02f28; isolation: isolate;"/>
  <path d="M13.61,125.77v-30.55h7.09c.4,0,1.65.41,2.06.59,2.13.96,2.71,3.42,2.85,5.57.4,6.48-.19,13.52-.15,20.03-.23,1.88-2.6,4.35-4.52,4.35h-7.32ZM18.1,122.08c1.34.02,2.47.21,2.65-1.44v-20.18c.04-.53-.38-1.55-.98-1.55h-1.67v23.17Z" style="fill: #f02f28; isolation: isolate;"/>
  <path d="M84.39,125.77h-4.73l-.81-8.19h-3.16s-1.1,8.19-1.1,8.19h-4.03l3.63-30.63h6.7s.15.16.15.16l3.36,30.47ZM78.62,113.55c-.21-2.44-.48-4.88-.69-7.32-.15-1.68-.16-3.4-.34-5.08-.02-.2-.04-.4-.29-.4l-1.1,12.8h2.42Z" style="fill: #f02f28; isolation: isolate;"/>
  <polygon points="118.51 95.22 118.51 99.14 112.97 99.14 112.97 108.25 118.28 108.25 118.28 112.17 112.97 112.17 112.97 121.68 113.15 121.85 118.51 121.85 118.51 125.77 108.36 125.77 108.36 95.28 118.51 95.22" style="fill: #f02f28; isolation: isolate;"/>
  <polygon points="39.43 95.22 39.43 99.14 33.78 99.14 33.78 108.08 33.95 108.25 39.08 108.25 39.08 112.17 33.95 112.17 33.78 112.34 33.78 121.68 33.95 121.85 39.66 121.85 39.66 125.77 29.28 125.77 29.28 95.22 39.43 95.22" style="fill: #f02f28; isolation: isolate;"/>
  <path d="M105.48,95.22v3.52l-6.09,22.85c-.05.09.12.26.16.26h5.94v3.92h-10.95v-3.17l6.11-23.46h-6.11v-3.86l.17-.15s.09.09.12.09h10.66Z" style="fill: #f02f28; isolation: isolate;"/>
  <path d="M53.03,121.85v3.92h-10.37v-30.55h4.21s.13-.2.29.06v26.4l.17.17h5.71Z" style="fill: #f02f28; isolation: isolate;"/>
  <rect x="87.38" y="95.22" width="4.5" height="30.55" style="fill: #f02f28; isolation: isolate;"/>
  <path d="M18.1,122.08v-23.17h1.67c.6,0,1.02,1.02.98,1.55v20.18c-.19,1.65-1.31,1.46-2.66,1.44Z" style="fill: #fff;"/>
  <path d="M78.62,113.55h-2.42l1.1-12.8c.26,0,.27.2.29.4.18,1.68.19,3.39.34,5.08.21,2.44.48,4.88.69,7.32Z" style="fill: #fff;"/>
</svg>