<?xml version="1.0" encoding="UTF-8"?>
<svg xmlns="http://www.w3.org/2000/svg" viewBox="0 0 150 150">
  <rect width="150" height="150" style="fill: #143c8a;"/>
  <polygon points="108.91 71.73 108.91 80.31 114.02 71.73 121.99 71.73 115.58 82.15 122.8 92.98 114.02 92.98 108.91 84.81 108.91 92.98 101.56 92.98 101.56 71.73 108.91 71.73" style="fill: #fefefe;"/>
  <path d="M98.26,72.99c.29.4-1.9,5.68-2.22,5.68-.92-1.4-5.52-2.5-5.92-.6-.22,1.04,4.76,1.84,6.01,2.56,5.01,2.93,3.31,9.61-1.51,11.73-4.47,1.96-8.26.56-12.65-.63-.5-.57,1.83-6.02,2.24-6.11,1.18,1.06,6.61,3.3,7.14,1.02.36-1.56-4.09-1.83-5.13-2.22-5.39-2.04-4.73-8.51-.32-11.39,3.98-2.6,8.29-1.9,12.36-.03Z" style="fill: #fdfefe;"/>
  <path d="M70.1,71.73c.04.64,1.87,5.74,2.45,5.31l2.05-5.31h8.58c-.37,2.05-6.95,10.61-6.95,11.64v9.6h-7.76v-9.6l-7.35-11.64h8.99Z" style="fill: #fefefe;"/>
  <path d="M59.88,71.73v16.14c0,1.55-2.54,3.96-3.93,4.65-3.78,1.85-6.07.26-9.52-1.21-.26-.36,2.03-6.23,2.63-6.5.55,2.26,3.47,2.11,3.47-.21v-12.87h7.35Z" style="fill: #fefefe;"/>
  <path d="M33.17,67.26c2.06-.59,3.04,2.81,1.57,3.24s-3.26-2.76-1.57-3.24Z" style="fill: #f1f5f8;"/>
  <path d="M48.4,72.92c-.58.83-5.8.9-7.02,1.35-.91.33-2.14,2.88-4.09,3.67-2.77,1.13-7.37-.4-6.23,4.01.78,3.01,5.58,7.63,7.08,11.73.92,2.51,2.05,8.89,1.26,11.29-.33,1.02-1.92.63-2.8.67,1.12-4.83-.15-9.8-2.53-14.01-1.98-3.51-8.06-9.43-5.74-13.66,1.97-3.58,11.09.14,10.21-7.96-.66-6.07-7.74-6.15-12.16-4,.09-1.49-.57-2.59.98-3.31,2.55-1.19,6.67-.88,9.24.24,1.55.68,8.27,5.15,9.59,6.35.75.68,3,2.52,2.22,3.63Z" style="fill: #fcfdfd;"/>
  <path d="M45.17,71.73c-2.75.03-4.63.74-4.08-2.86,1.33.91,3.21,1.43,4.08,2.86Z" style="fill: #204188;"/>
</svg>